<svg width="27" height="27" viewBox="0 0 27 27" fill="none" xmlns="http://www.w3.org/2000/svg">
<path d="M24 5L21.7802 6.6432C21.4359 6.89812 21.0187 7.03571 20.5903 7.03571H15.6038C14.8501 7.03571 14.1603 7.4595 13.8197 8.13191L13.7311 8.30671C13.3047 9.14843 13.5246 10.1737 14.2587 10.7665L18.0016 13.789C19.5967 15.0772 20.4236 17.0907 20.1943 19.1282L19.9709 21.112C19.9072 21.6786 19.783 22.2367 19.6006 22.7768L19.1875 24" stroke="#33363F" stroke-width="2"/>
<path d="M1 11.3333L6.2381 10.4603C7.59174 10.2347 8.76529 11.4083 8.53968 12.7619L8.15235 15.0859C7.86366 16.818 8.73844 18.5359 10.3091 19.3212L10.8475 19.5904C12.1052 20.2193 12.7574 21.6372 12.4163 23.0013L11.6667 26" stroke="#33363F" stroke-width="2"/>
<circle cx="13.5" cy="13.5" r="12.5" stroke="#33363F" stroke-width="2"/>
</svg>
