<svg width="193" height="13" viewBox="0 0 193 13" fill="none" xmlns="http://www.w3.org/2000/svg">
<path fill-rule="evenodd" clip-rule="evenodd" d="M4.30485 6.68323C3.03297 6.65145 1.76293 6.61216 0.4932 6.56714C0.245127 6.55819 0.0396953 6.76489 0.0346857 7.02865C0.0296761 7.29241 0.227014 7.51383 0.475087 7.52278C1.61805 7.56217 2.76122 7.59774 3.90369 7.62944C3.96767 7.67633 4.09608 7.74523 4.31556 7.78649C11.1548 9.02629 18.5351 8.17815 25.5196 7.72151C32.0692 7.61903 38.6214 7.41337 45.175 7.15233C44.3944 7.22612 43.614 7.29802 42.8332 7.36605C42.6707 7.38072 42.2497 7.42013 42.1919 7.43496C41.8615 7.52704 41.8542 7.82888 41.8559 7.90556C41.8567 7.9439 41.8849 8.3671 42.3325 8.38329C47.1403 8.55272 51.9441 8.13236 56.7272 7.75446C58.5064 7.61358 60.2838 7.46872 62.0623 7.32013C62.6807 7.26677 64.2904 7.19744 64.5123 7.15467C64.7507 7.1074 64.8426 6.94776 64.8776 6.82405C68.7369 6.60304 72.6006 6.41297 76.4654 6.2517C77.2223 6.25653 77.9781 6.26318 78.734 6.26985C86.9714 6.35079 95.2069 6.46415 103.444 6.50676C98.8559 6.69828 94.2569 6.9081 89.6769 7.2112C88.7386 7.27322 87.8023 7.36219 86.8646 7.4319C86.3521 7.46829 85.0268 7.47843 84.8405 7.54108C84.563 7.63711 84.5203 7.86363 84.5137 7.97607C84.5099 8.04468 84.5325 8.42725 85.0004 8.52533C93.6787 10.3522 102.525 10.7906 111.319 11.3399C113.633 11.4839 115.946 11.6374 118.258 11.7985C112.736 11.8591 107.156 11.6053 101.642 11.4233C101.592 11.3736 101.52 11.3262 101.417 11.2936C101.266 11.244 100.797 11.1784 99.9436 11.1051C99.7597 11.0894 99.594 11.1938 99.5143 11.3563C98.2041 11.3197 96.8975 11.2892 95.5972 11.2706C91.3386 11.2092 87.081 11.3086 82.8231 11.2682L81.8595 11.2499L81.6585 11.2464C80.9203 11.2276 80.0173 11.2004 79.4174 11.1824C79.0711 11.17 78.1704 11.1601 78.0459 11.1623C77.6703 11.1726 77.6081 11.5412 77.6055 11.5582C77.6041 11.5677 77.6124 12.1061 78.1265 12.1234C78.4706 12.1357 79.7692 12.1638 81.5897 12.2001C82.0471 12.2113 82.4484 12.2202 82.6876 12.2228L82.8717 12.225C88.6929 12.3323 98.0211 12.4679 100.662 12.3473C109.256 12.6137 118.026 13.1115 126.507 12.3838C126.785 12.3586 126.907 12.2644 126.931 12.2432C127.062 12.1209 127.088 11.9812 127.082 11.8602C127.079 11.7834 127.041 11.4724 126.688 11.3982C126.44 11.3452 124.656 11.2963 123.969 11.2469C119.767 10.9447 115.565 10.6482 111.361 10.386C103.78 9.91193 96.1591 9.52486 88.6413 8.2478C89.0088 8.21781 89.3763 8.18978 89.7443 8.16556C94.3882 7.85766 99.0517 7.64497 103.703 7.45243C118.146 6.85401 132.934 7.9006 147.308 6.70365C147.603 6.6797 147.734 6.58616 147.759 6.56508C147.898 6.44145 147.924 6.29603 147.918 6.17308C147.914 6.09815 147.873 5.7831 147.514 5.71035C147.218 5.64995 145.085 5.59984 144.263 5.54618C140.984 5.33196 137.701 5.11562 134.419 4.9835C129 4.76657 123.571 4.6215 118.143 4.55698C117.679 4.44196 117.198 4.33528 116.702 4.23698C120.362 4.19631 124.02 4.18802 127.677 4.22369C142.667 4.36473 157.656 4.76398 172.642 5.27983C178.849 5.49437 185.146 6.07739 191.353 6.01253C191.573 6.00981 192.061 6.06154 192.3 6.05839C192.438 6.05714 192.538 6.03209 192.586 6.0127C192.785 5.92804 192.849 5.77397 192.87 5.65304C192.888 5.55866 192.921 5.24915 192.55 5.07218C184.577 1.26532 171.954 2.42066 163.68 1.98096C129.893 0.186 96.0966 0.876636 62.3602 2.53445C48.8718 3.1965 35.4175 3.87064 21.9594 4.98666C17.1835 5.38232 12.4008 5.69521 7.6507 6.34162C7.03074 6.4274 5.71938 6.50941 4.87945 6.59982C4.65333 6.62505 4.45655 6.65436 4.30485 6.68323ZM190.013 5.06076C182.151 2.37612 171.108 3.33175 163.647 2.93548C129.889 1.14268 96.1211 1.83162 62.4134 3.48775C48.9345 4.15052 35.4898 4.8235 22.0409 5.94021C18.6197 6.22263 15.1946 6.46455 11.7812 6.81646C16.3427 6.85841 20.9056 6.83732 25.4747 6.76692C26.4253 6.7039 27.3693 6.64802 28.3036 6.60675C39.7782 6.09486 51.2785 5.60024 62.7802 5.39277C66.5841 5.20399 70.3881 5.00943 74.1953 4.81707C81.5633 4.17469 91.6211 3.26231 100.878 3.161C104.063 3.12692 107.153 3.18916 110.008 3.39277C115.901 3.26418 121.788 3.21179 127.673 3.26832C142.671 3.40799 157.666 3.80966 172.661 4.32616C178.414 4.52409 184.244 5.04163 190.013 5.06076ZM118.059 5.51152C114.581 5.47199 111.104 5.46699 107.632 5.49683C106.087 5.51163 104.541 5.52834 102.996 5.54884C103.84 5.55444 104.684 5.55814 105.528 5.55991C109.49 5.57433 113.462 5.5952 117.423 5.52919C117.62 5.52475 117.884 5.53298 118.18 5.54357L118.064 5.51384L118.059 5.51152ZM139.486 6.19817C137.79 6.09836 136.094 6.00619 134.397 5.93885C129.993 5.76319 125.581 5.63291 121.169 5.55618C121.275 5.62917 121.332 5.69849 121.358 5.74253C121.434 5.86686 121.446 5.98835 121.43 6.09813C121.419 6.16627 121.396 6.24685 121.342 6.3232C127.401 6.36212 133.468 6.41493 139.486 6.19817ZM112.083 4.52192C111.419 4.45508 110.738 4.39659 110.043 4.3466C106.598 4.42249 103.154 4.52133 99.7125 4.63959C102.345 4.59876 104.979 4.56573 107.613 4.54221C109.102 4.52901 110.593 4.52164 112.083 4.52192Z" fill="white"/>
</svg>
