<svg width="215" height="17" viewBox="0 0 215 17" fill="none" xmlns="http://www.w3.org/2000/svg">
<path fill-rule="evenodd" clip-rule="evenodd" d="M78.8947 7.06316C77.5957 7.30258 76.305 7.55441 75.0227 7.81959C74.556 7.916 74.2874 8.27033 74.4213 8.61062L74.4281 8.62397C67.4182 8.89842 60.4126 9.22165 53.4131 9.59491C43.3019 10.1344 33.1363 10.8507 23.0836 11.8116C13.149 12.7612 10.4036 13.0105 1.88777 14.384C1.64424 14.4232 1.17075 14.4337 0.919005 14.4924C0.679603 14.5481 0.511082 14.6387 0.404492 14.7258C0.267896 14.8362 0.192796 14.9612 0.165622 15.0966C0.137113 15.244 0.158141 15.4227 0.341779 15.6181C0.859685 16.1664 1.65453 16.2996 2.60672 16.1559C3.42599 16.0321 4.40306 15.6445 5.18224 15.5825C18.1536 14.5516 31.1119 13.4463 44.0853 12.4291C63.9462 10.872 83.7774 9.86009 103.623 9.0431C124.511 8.62243 145.412 8.6193 166.3 9.00225C179.903 9.25124 193.494 9.79631 207.091 10.2278C207.083 10.2716 207.084 10.317 207.089 10.3633C207.139 10.7152 207.572 10.9729 208.054 10.9386C208.543 10.9038 212.913 10.6968 213.711 10.5304C214.168 10.4351 214.337 10.2224 214.392 10.1318C214.541 9.88331 214.535 9.61777 214.159 9.3743C214.084 9.32763 213.946 9.25096 213.698 9.20626C213.485 9.16691 212.962 9.12392 212.014 9.09671C196.788 8.65051 181.57 8.00078 166.336 7.72085C159.535 7.59687 152.733 7.5127 145.927 7.47192C155.142 7.13961 164.36 6.79541 173.591 6.40476C173.988 6.38878 174.178 6.33653 174.213 6.32446C174.712 6.15129 174.73 5.85818 174.711 5.69285C174.705 5.63382 174.61 5.14784 173.862 5.09914C173.424 5.07045 170.273 5.07582 169.06 5.06122C163.23 4.98718 163.367 5.01955 157.405 4.98036C144.294 4.89543 131.21 4.95501 118.095 5.07072C112.866 5.117 107.638 5.18139 102.41 5.26574C117.416 3.93067 132.787 3.56014 147.428 3.05556C154.981 2.79538 162.538 2.56945 170.098 2.4396C173.484 2.38152 176.871 2.36484 180.257 2.3191C181.31 2.3048 182.36 2.30851 183.411 2.29884C183.535 2.29759 185.165 2.26404 185.432 2.25268C186.132 2.22297 186.267 1.76427 186.273 1.7459C186.298 1.65959 186.379 1.04508 185.504 0.973862C172.864 -0.055292 159.711 0.614356 147.008 0.729809C124.776 0.93181 102.511 1.60766 80.3292 2.70125C70.5181 3.18488 60.7521 3.90926 50.9682 4.63178C46.0818 4.99266 41.1832 5.36768 36.3622 6.05964C35.8785 6.12915 34.7784 6.21661 34.247 6.29791C33.9766 6.33939 33.7857 6.39856 33.699 6.43779C33.3188 6.60814 33.2545 6.84555 33.2575 7.01073C33.2606 7.1345 33.321 7.56898 34.1301 7.68069C45.6918 9.2794 58.3348 7.71579 69.963 7.33442C72.9397 7.23678 75.9159 7.14651 78.8947 7.06316ZM88.5951 6.8165C85.1663 7.29265 81.7756 7.83989 78.438 8.47256C86.8078 8.16717 95.1819 7.9312 103.563 7.76256C117.374 7.19402 131.189 6.71959 145.02 6.22154C136.059 6.21967 127.098 6.27259 118.124 6.35189C108.281 6.43873 98.4361 6.59054 88.5951 6.8165ZM136.296 2.14521C117.668 2.44104 99.0326 3.0635 80.457 3.97935C70.6634 4.4622 60.9181 5.1853 51.1532 5.90645C47.3108 6.19021 43.4584 6.48187 39.6451 6.93378C49.598 7.5594 60.0995 6.37516 69.8765 6.0546C76.0511 5.85212 82.2306 5.68076 88.4098 5.53871C104.021 3.38374 120.416 2.68494 136.296 2.14521Z" fill="white"/>
</svg>
