<svg width="69" height="42" viewBox="0 0 69 42" fill="none" xmlns="http://www.w3.org/2000/svg">
<g id="Group">
<g id="Group_2">
<path id="Vector" fill-rule="evenodd" clip-rule="evenodd" d="M59.959 0.102153C62.6725 1.32047 65.3676 2.50188 68.0442 3.79865C68.6211 4.07554 68.861 4.76307 68.5841 5.33531C68.3072 5.91217 67.6151 6.15222 67.0428 5.87533C64.3801 4.58779 61.7081 3.41564 59.013 2.20655C58.4316 1.9435 58.173 1.26048 58.4315 0.683628C58.6945 0.102158 59.3775 -0.160893 59.959 0.102153Z" fill="#F9CF00"/>
</g>
<g id="Group_3">
<path id="Vector_2" fill-rule="evenodd" clip-rule="evenodd" d="M40.0229 14.5144C43.964 23.0472 47.4714 31.7739 51.2279 40.3852C51.4817 40.9713 51.214 41.6497 50.6326 41.9035C50.0465 42.1574 49.3682 41.8943 49.1098 41.3082C45.3625 32.7108 41.8645 23.9979 37.928 15.4836C37.6604 14.9021 37.914 14.2191 38.4909 13.9514C39.0724 13.6837 39.7553 13.9375 40.0229 14.5144Z" fill="#F9CF00"/>
</g>
<g id="Group_4">
<path id="Vector_3" fill-rule="evenodd" clip-rule="evenodd" d="M6.20995 16.7295C4.9501 24.5748 3.46874 32.3969 2.29657 40.256C2.19966 40.8836 1.61365 41.3173 0.98603 41.225C0.353796 41.1327 -0.0799356 40.5421 0.012361 39.9145C1.18915 32.0462 2.67051 24.2148 3.93498 16.3603C4.0365 15.7327 4.62714 15.3035 5.25476 15.405C5.88699 15.5065 6.31148 16.0973 6.20995 16.7295Z" fill="#F9CF00"/>
</g>
</g>
</svg>
