<svg width="41" height="44" viewBox="0 0 41 44" fill="none" xmlns="http://www.w3.org/2000/svg">
<g id="Group 99">
<path id="Vector" fill-rule="evenodd" clip-rule="evenodd" d="M13.4372 41.0605C9.60244 39.9844 5.58757 39.4415 1.69289 38.9442C0.854038 38.84 0.0752181 39.4218 0.0152999 40.2414C-0.104537 41.0617 0.494997 41.8119 1.27393 41.9162C5.04878 42.3949 8.94311 42.9072 12.5981 43.9432C13.3771 44.1679 14.2163 43.7053 14.4559 42.9096C14.6956 42.1145 14.2161 41.2858 13.4372 41.0605Z" fill="#F9CF00"/>
<path id="Vector_2" fill-rule="evenodd" clip-rule="evenodd" d="M25.0609 25.8035C18.8893 19.5055 11.9388 14.0182 5.88705 7.55123C5.34778 6.94726 4.38909 6.9149 3.78991 7.47873C3.19073 8.04316 3.13105 8.99226 3.73023 9.59624C9.78196 16.0818 16.7325 21.5871 22.904 27.9036C23.5032 28.4932 24.4617 28.5016 25.0609 27.9216C25.6001 27.3422 25.66 26.3931 25.0609 25.8035Z" fill="#F9CF00"/>
<path id="Vector_3" fill-rule="evenodd" clip-rule="evenodd" d="M36.6259 1.5793C36.8056 5.18398 36.985 8.78865 37.1648 12.3939C37.1648 13.2196 37.8841 13.8571 38.723 13.817C39.5619 13.7762 40.1607 13.0734 40.1607 12.2471C39.9809 8.63646 39.8015 5.02639 39.6218 1.41632C39.5619 0.590648 38.8427 -0.0426876 38.0039 0.00225102C37.2249 0.0471896 36.5659 0.754226 36.6259 1.5793Z" fill="#F9CF00"/>
</g>
</svg>
