<svg width="100%" height="100%" viewBox="0 0 534 95" fill="none" xmlns="http://www.w3.org/2000/svg">
<path fill-rule="evenodd" clip-rule="evenodd" d="M390.015 14.3712C415.764 16.2825 436.063 20.4859 456.339 25.0481C522.837 40.0243 544.256 58.1351 497.198 71.6624C424.024 92.6277 256.258 98.8338 127.46 83.041C98.9354 79.5518 60.267 75.6283 32.3749 65.5731C6.42854 56.223 8.1031 47.1462 20.7471 39.4384C33.6247 31.5302 57.9114 25.0314 77.1739 21.0828C161.389 3.86581 328.505 -6.10355 477.815 14.0362C480.885 14.4363 483.991 14.2739 484.912 13.6834C485.834 13.093 484.334 12.3039 481.484 11.9175C327.79 -8.81137 155.36 1.26395 68.6817 18.9821C44.7146 23.909 13.2127 32.6668 3.70969 43.1758C-2.71071 50.3631 0.988467 58.3535 23.4718 66.5122C53.092 77.2174 94.1688 81.5257 124.449 85.2355C257.416 101.543 430.936 95.209 506.364 73.5469C557.024 59.0125 534.365 39.5521 462.852 23.4525C441.052 18.5151 418.779 14.033 390.829 11.9591C387.748 11.7309 385.073 12.0867 385.03 12.7638C384.768 13.4271 387.154 14.1569 390.015 14.3712Z" fill="#F9CF00"/>
</svg>
