<svg width="574" height="439" viewBox="0 0 574 439" fill="none" xmlns="http://www.w3.org/2000/svg">
<path d="M59.6701 418.081C57.0116 418.069 54.4509 417.108 52.4766 415.381C39.8795 404.922 39.6342 367.874 39.6276 366.299C38.5204 340.167 43.0553 329.869 47.0466 325.832C49.3671 323.485 51.3362 323.459 51.4224 323.459V324.102C51.4224 324.102 49.6124 324.147 47.4842 326.32C43.599 330.293 39.1966 340.463 40.2906 366.287C40.2906 366.679 40.569 404.626 52.8876 414.893C54.0116 415.883 55.3508 416.614 56.8061 417.034C58.2614 417.453 59.7954 417.55 61.2945 417.316L61.3939 417.959C60.8234 418.043 60.2471 418.084 59.6701 418.081Z" fill="white"/>
<path d="M60.6978 417.959C45.9725 417.959 43.2807 390.632 43.1746 389.474C41.4575 364.853 45.0377 355.602 48.3394 352.189C49.977 350.498 51.3561 350.479 51.4157 350.479V351.122C51.4157 351.122 50.2157 351.16 48.7637 352.684C46.1581 355.448 42.0475 363.889 43.831 389.442C43.831 389.712 46.5692 417.336 60.6911 417.336L60.6978 417.959Z" fill="white"/>
<path d="M60.8436 416.68C57.3761 416.68 54.6247 415.465 52.6489 413.067C44.9183 403.662 51.4754 379.369 51.7539 378.353L52.4169 378.52C52.3506 378.764 45.6675 403.527 53.1926 412.682C55.1219 415.034 57.88 416.172 61.3674 416.044V416.687L60.8436 416.68Z" fill="white"/>
<path d="M146.696 318.085H60.5055V419.656H146.696V318.085Z" fill="white"/>
<path d="M150.72 389.442H57.8071C55.6357 389.442 53.8755 391.149 53.8755 393.254V408.13C53.8755 410.235 55.6357 411.942 57.8071 411.942H150.72C152.891 411.942 154.652 410.235 154.652 408.13V393.254C154.652 391.149 152.891 389.442 150.72 389.442Z" fill="#F9CF00"/>
<path d="M157.967 395.871H50.5605V404.871H157.967V395.871Z" fill="#F9CF00"/>
<path opacity="0.35" d="M157.967 395.871H50.5605V404.871H157.967V395.871Z" fill="white"/>
<path opacity="0.35" d="M152.331 398.121H95.3131C94.0315 398.121 92.9926 399.128 92.9926 400.371C92.9926 401.613 94.0315 402.621 95.3131 402.621H152.331C153.613 402.621 154.652 401.613 154.652 400.371C154.652 399.128 153.613 398.121 152.331 398.121Z" fill="white"/>
<path d="M60.174 403.264C61.8217 403.264 63.1575 401.969 63.1575 400.371C63.1575 398.773 61.8217 397.478 60.174 397.478C58.5263 397.478 57.1905 398.773 57.1905 400.371C57.1905 401.969 58.5263 403.264 60.174 403.264Z" fill="white"/>
<path d="M73.434 403.264C75.0818 403.264 76.4175 401.969 76.4175 400.371C76.4175 398.773 75.0818 397.478 73.434 397.478C71.7863 397.478 70.4505 398.773 70.4505 400.371C70.4505 401.969 71.7863 403.264 73.434 403.264Z" fill="white"/>
<path d="M86.031 403.264C87.6788 403.264 89.0146 401.969 89.0146 400.371C89.0146 398.773 87.6788 397.478 86.031 397.478C84.3833 397.478 83.0475 398.773 83.0475 400.371C83.0475 401.969 84.3833 403.264 86.031 403.264Z" fill="white"/>
<path d="M150.72 364.371H57.8071C55.6357 364.371 53.8755 366.078 53.8755 368.183V383.059C53.8755 385.164 55.6357 386.871 57.8071 386.871H150.72C152.891 386.871 154.652 385.164 154.652 383.059V368.183C154.652 366.078 152.891 364.371 150.72 364.371Z" fill="#F9CF00"/>
<path d="M157.967 370.799H50.5605V379.799H157.967V370.799Z" fill="#F9CF00"/>
<path opacity="0.35" d="M157.967 370.799H50.5605V379.799H157.967V370.799Z" fill="white"/>
<path opacity="0.35" d="M152.331 373.049H95.3131C94.0315 373.049 92.9926 374.057 92.9926 375.299C92.9926 376.542 94.0315 377.549 95.3131 377.549H152.331C153.613 377.549 154.652 376.542 154.652 375.299C154.652 374.057 153.613 373.049 152.331 373.049Z" fill="white"/>
<path d="M60.174 378.192C61.8217 378.192 63.1575 376.897 63.1575 375.299C63.1575 373.702 61.8217 372.406 60.174 372.406C58.5263 372.406 57.1905 373.702 57.1905 375.299C57.1905 376.897 58.5263 378.192 60.174 378.192Z" fill="white"/>
<path d="M73.434 378.192C75.0818 378.192 76.4175 376.897 76.4175 375.299C76.4175 373.702 75.0818 372.406 73.434 372.406C71.7863 372.406 70.4505 373.702 70.4505 375.299C70.4505 376.897 71.7863 378.192 73.434 378.192Z" fill="white"/>
<path d="M86.031 378.192C87.6788 378.192 89.0146 376.897 89.0146 375.299C89.0146 373.702 87.6788 372.406 86.031 372.406C84.3833 372.406 83.0475 373.702 83.0475 375.299C83.0475 376.897 84.3833 378.192 86.031 378.192Z" fill="white"/>
<path d="M150.057 339.942H57.1441C54.9727 339.942 53.2125 341.649 53.2125 343.755V358.63C53.2125 360.736 54.9727 362.442 57.1441 362.442H150.057C152.228 362.442 153.989 360.736 153.989 358.63V343.755C153.989 341.649 152.228 339.942 150.057 339.942Z" fill="#F9CF00"/>
<path d="M157.304 346.371H49.8975V355.371H157.304V346.371Z" fill="#F9CF00"/>
<path opacity="0.35" d="M157.304 346.371H49.8975V355.371H157.304V346.371Z" fill="white"/>
<path opacity="0.35" d="M151.668 348.621H94.6501C93.3685 348.621 92.3296 349.628 92.3296 350.871C92.3296 352.113 93.3685 353.121 94.6501 353.121H151.668C152.95 353.121 153.989 352.113 153.989 350.871C153.989 349.628 152.95 348.621 151.668 348.621Z" fill="white"/>
<path d="M59.511 353.764C61.1587 353.764 62.4945 352.469 62.4945 350.871C62.4945 349.273 61.1587 347.978 59.511 347.978C57.8633 347.978 56.5275 349.273 56.5275 350.871C56.5275 352.469 57.8633 353.764 59.511 353.764Z" fill="white"/>
<path d="M72.771 353.764C74.4188 353.764 75.7545 352.469 75.7545 350.871C75.7545 349.273 74.4188 347.978 72.771 347.978C71.1233 347.978 69.7875 349.273 69.7875 350.871C69.7875 352.469 71.1233 353.764 72.771 353.764Z" fill="white"/>
<path d="M85.3681 353.764C87.0158 353.764 88.3516 352.469 88.3516 350.871C88.3516 349.273 87.0158 347.978 85.3681 347.978C83.7203 347.978 82.3846 349.273 82.3846 350.871C82.3846 352.469 83.7203 353.764 85.3681 353.764Z" fill="white"/>
<path d="M150.72 314.228H57.8071C55.6357 314.228 53.8755 315.935 53.8755 318.04V332.916C53.8755 335.021 55.6357 336.728 57.8071 336.728H150.72C152.891 336.728 154.652 335.021 154.652 332.916V318.04C154.652 315.935 152.891 314.228 150.72 314.228Z" fill="#F9CF00"/>
<path d="M157.967 320.657H50.5605V329.657H157.967V320.657Z" fill="#F9CF00"/>
<path opacity="0.35" d="M157.967 320.657H50.5605V329.657H157.967V320.657Z" fill="white"/>
<path opacity="0.35" d="M152.331 322.907H95.3131C94.0315 322.907 92.9926 323.914 92.9926 325.157C92.9926 326.399 94.0315 327.407 95.3131 327.407H152.331C153.613 327.407 154.652 326.399 154.652 325.157C154.652 323.914 153.613 322.907 152.331 322.907Z" fill="white"/>
<path d="M60.174 328.049C61.8217 328.049 63.1575 326.754 63.1575 325.157C63.1575 323.559 61.8217 322.264 60.174 322.264C58.5263 322.264 57.1905 323.559 57.1905 325.157C57.1905 326.754 58.5263 328.049 60.174 328.049Z" fill="white"/>
<path d="M73.434 328.049C75.0818 328.049 76.4175 326.754 76.4175 325.157C76.4175 323.559 75.0818 322.264 73.434 322.264C71.7863 322.264 70.4505 323.559 70.4505 325.157C70.4505 326.754 71.7863 328.049 73.434 328.049Z" fill="white"/>
<path d="M86.031 328.049C87.6788 328.049 89.0146 326.754 89.0146 325.157C89.0146 323.559 87.6788 322.264 86.031 322.264C84.3833 322.264 83.0475 323.559 83.0475 325.157C83.0475 326.754 84.3833 328.049 86.031 328.049Z" fill="white"/>
<path d="M449.608 11.7642H192.854C182.74 11.7642 174.542 19.7137 174.542 29.5198V183.651C174.542 193.457 182.74 201.407 192.854 201.407H449.608C459.721 201.407 467.92 193.457 467.92 183.651V29.5198C467.92 19.7137 459.721 11.7642 449.608 11.7642Z" fill="white"/>
<path opacity="0.28" d="M445.298 16.2642H198.158C188.044 16.2642 179.846 24.2137 179.846 34.0198V177.544C179.846 187.35 188.044 195.3 198.158 195.3H445.298C455.412 195.3 463.61 187.35 463.61 177.544V34.0198C463.61 24.2137 455.412 16.2642 445.298 16.2642Z" fill="#F9CF00"/>
<path d="M250.111 100.588C235.392 100.382 223.551 95.3806 214.912 85.7249C193.073 61.2963 198.947 14.6314 199 14.1621L200.326 14.3228C200.266 14.7857 194.472 60.9042 215.926 84.8827C224.3 94.2491 235.816 99.1027 250.137 99.302L250.111 100.588Z" fill="white"/>
<path d="M395.076 101.038L394.413 99.9192C421.662 85.1849 415.629 16.9907 415.576 16.3479L416.902 16.2322C417.839 28.4054 417.749 40.6326 416.63 52.7914C414.124 78.4285 406.871 94.667 395.076 101.038Z" fill="white"/>
<path d="M402.939 121.725C400.779 121.742 398.619 121.654 396.468 121.461L396.621 120.175C397.058 120.227 440.836 124.675 466.899 92.9055L467.94 93.7091C454.056 110.616 435.353 117.257 422.113 119.854C415.8 121.085 409.378 121.712 402.939 121.725Z" fill="white"/>
<path d="M397.31 131.014C397.31 131.014 395.984 143.871 380.072 145.8C380.072 145.8 373.542 164.796 348.818 162.565L348.261 162.514C348.261 162.514 331.792 160.932 321.244 149.13C320.307 148.086 319.441 146.984 318.652 145.832H301.851C301.851 145.832 294.777 145.832 288.591 138.51C287.318 136.992 286.208 135.353 285.276 133.618H254.798C252.019 133.647 249.279 132.983 246.842 131.689C242.977 129.574 238.793 125.209 239.549 116.26C240.167 113.545 241.455 111.014 243.302 108.887C245.15 106.76 247.502 105.099 250.157 104.046C250.157 104.046 242.778 87.1198 262.383 82.4076C262.383 82.4076 258.113 66.7605 272.036 61.6177C272.036 61.6177 279.992 57.7605 288.611 65.4748C288.611 65.4748 289.274 51.9748 301.208 50.0463C301.208 50.0463 313.805 47.4748 318.446 59.6891C318.446 59.6891 325.076 46.1891 338.999 50.6891C338.999 50.6891 347.618 51.9748 348.944 64.832C348.944 64.832 360.215 54.5463 371.486 65.4748C371.486 65.4748 379.442 73.1891 373.475 84.1176C373.475 84.1176 390.713 78.9748 394.691 94.4033C395.354 97.5774 395.012 100.872 393.711 103.854C392.409 106.837 390.209 109.368 387.398 111.118C390.224 112.755 392.678 114.931 394.612 117.514C396.075 119.425 397.078 121.63 397.545 123.966C398.012 126.303 397.932 128.711 397.31 131.014Z" fill="#F9B499" stroke="#F7A48B" stroke-miterlimit="10"/>
<path d="M250.124 104.014C251.601 103.54 253.158 103.341 254.712 103.429C256.286 103.505 257.836 103.833 259.3 104.4C260.029 104.693 260.736 105.037 261.415 105.428C262.078 105.843 262.701 106.314 263.278 106.836C264.431 107.852 265.368 109.078 266.036 110.443C264.979 109.414 263.839 108.468 262.628 107.614C261.449 106.783 260.163 106.104 258.803 105.596C257.448 105.062 256.039 104.67 254.599 104.426C253.12 104.18 251.624 104.042 250.124 104.014Z" fill="#F7A48B"/>
<path d="M292.271 80.1641C294.171 79.9762 296.09 80.1956 297.893 80.8069C298.344 80.9741 298.801 81.1284 299.219 81.3212L300.545 81.9641C300.95 82.2148 301.347 82.4912 301.752 82.7548C302.156 83.0183 302.494 83.3591 302.866 83.6612C304.287 84.9444 305.407 86.5101 306.148 88.2512L306.439 88.8941C306.519 89.1126 306.578 89.3376 306.645 89.5369L307.023 90.8676C307.193 91.7666 307.308 92.6747 307.367 93.5869C307.003 92.7383 306.751 91.8769 306.399 91.054L305.836 89.8391C305.736 89.6398 305.657 89.4341 305.557 89.2412L305.219 88.669L304.556 87.5376L303.767 86.4898C303.511 86.1372 303.225 85.806 302.912 85.4998C302.629 85.1668 302.317 84.8592 301.977 84.5805C300.677 83.3897 299.177 82.4223 297.542 81.7198C295.86 80.9853 294.089 80.4625 292.271 80.1641Z" fill="#F29681"/>
<path d="M315.098 91.7998C315.098 91.7998 310.126 102.728 321.231 109.157" stroke="#ED1C24" stroke-miterlimit="10"/>
<path d="M239.595 120.857C239.595 120.857 266.036 132.326 277.307 122.683C277.307 122.683 296.103 109.048 286.37 97.2256C291.113 100.567 294.455 105.453 295.785 110.989C295.785 110.989 282.611 115.611 285.263 133.611H254.798C254.798 133.611 241.657 134.441 239.595 120.857Z" fill="#F7A48B"/>
<path d="M277.307 88.5857C277.307 88.5857 294.545 86.0143 288.578 65.4429C288.578 65.4429 299.186 74.5457 288.903 85.1014C288.903 85.1014 285.263 89.2285 277.307 88.5857Z" fill="#F7A48B"/>
<path d="M313.772 72.5142C313.772 72.5142 310.457 82.292 313.772 88.6563C313.772 88.6563 303.827 95.657 313.772 109.157H325.381C325.381 109.157 314.999 97.7205 322.013 88.6563C322 88.6563 313.109 85.3713 313.772 72.5142Z" fill="#F7A48B"/>
<path d="M332.999 73.7998C332.999 73.7998 359.519 69.2999 345.596 96.2998C345.596 96.2998 352.538 98.5434 356.489 103.371C357.349 104.443 357.937 105.695 358.207 107.027C358.476 108.36 358.42 109.735 358.041 111.042C357.662 112.349 356.973 113.551 356.027 114.553C355.082 115.554 353.907 116.326 352.597 116.807C348.46 118.356 341.79 119.803 331.262 119.886C328.787 119.937 326.326 119.508 324.024 118.625C321.722 117.742 319.625 116.422 317.856 114.743C317.684 114.576 317.511 114.403 317.352 114.229C317.352 114.229 324.102 123.441 317.611 135.578C317.611 135.578 321.343 134.1 322.199 125.479C322.199 125.479 322.391 123.287 326.037 123.93L353.393 123.872C353.393 123.872 367.316 122.644 368.052 109.144C368.052 109.144 369.152 96.6598 352.737 93.5805C352.737 93.5805 362.874 75.947 345.616 71.0098C345.616 71.0227 340.955 69.9427 332.999 73.7998Z" fill="#F7A48B"/>
<path d="M369.988 64.1377C369.988 64.1377 375.431 80.852 366.149 87.9234C366.149 87.9234 378.441 87.0362 374.947 71.4084C374.947 71.4277 373.827 66.6963 369.988 64.1377Z" fill="#F7A48B"/>
<path d="M380.735 113.014C380.735 113.014 396.76 102.529 390.402 86.8755C390.402 86.8755 398.358 93.5419 393.518 104.233C393.518 104.245 390.68 111.728 380.735 113.014Z" fill="#F7A48B"/>
<path d="M397.31 131.014C397.31 131.014 395.984 143.871 380.072 145.8C380.072 145.8 373.542 164.796 348.818 162.566C371.897 160.033 373.442 140.657 373.442 140.657C399.723 145.118 394.658 117.977 394.579 117.514C396.048 119.422 397.056 121.626 397.529 123.963C398.002 126.299 397.927 128.709 397.31 131.014Z" fill="#F7A48B"/>
<path d="M360.182 131.657C360.068 129.449 360.292 127.238 360.845 125.093C361.398 122.932 362.24 120.851 363.351 118.903C363.65 118.421 363.908 117.926 364.24 117.469L365.241 116.1C365.586 115.65 365.99 115.251 366.368 114.814L366.938 114.171L367.601 113.612C368.032 113.246 368.45 112.86 368.894 112.513L370.306 111.561C370.551 111.413 370.777 111.246 371.029 111.118L371.791 110.738C372.302 110.494 372.812 110.256 373.323 110.031C372.879 110.378 372.434 110.713 371.997 111.041L371.334 111.523C371.115 111.69 370.923 111.889 370.711 112.069L369.477 113.143L368.35 114.313C366.871 115.886 365.591 117.626 364.538 119.494C363.472 121.362 362.584 123.32 361.886 125.344C361.166 127.407 360.597 129.516 360.182 131.657Z" fill="#F29681"/>
<g opacity="0.41">
<path d="M366.149 134.241C366 134.247 365.854 134.203 365.734 134.118C365.613 134.033 365.526 133.911 365.486 133.772C365.446 133.643 361.932 120.966 372.998 115.335C373.154 115.256 373.335 115.24 373.503 115.29C373.671 115.341 373.811 115.454 373.893 115.605C373.975 115.756 373.991 115.932 373.939 116.095C373.887 116.257 373.77 116.393 373.615 116.473C363.504 121.616 366.626 132.943 366.759 133.425C366.806 133.589 366.784 133.764 366.699 133.912C366.613 134.06 366.47 134.169 366.302 134.216C366.252 134.229 366.201 134.237 366.149 134.241Z" fill="white"/>
</g>
<g opacity="0.41">
<path d="M290.932 136.234C290.801 136.234 290.674 136.197 290.566 136.127C290.457 136.057 290.372 135.958 290.322 135.842C290.189 135.527 287.007 128.089 290.249 121.86C292.052 118.369 295.5 115.984 300.492 114.788C300.662 114.747 300.841 114.773 300.991 114.86C301.142 114.946 301.251 115.087 301.294 115.251C301.316 115.334 301.321 115.419 301.308 115.503C301.296 115.587 301.266 115.668 301.221 115.741C301.176 115.814 301.117 115.878 301.046 115.928C300.976 115.979 300.895 116.015 300.81 116.036C296.216 117.148 293.066 119.301 291.442 122.464C288.492 128.16 291.515 135.321 291.548 135.373C291.582 135.451 291.599 135.534 291.6 135.619C291.6 135.704 291.583 135.788 291.55 135.866C291.516 135.944 291.467 136.015 291.406 136.075C291.344 136.135 291.271 136.182 291.19 136.215C291.106 136.239 291.018 136.246 290.932 136.234Z" fill="white"/>
</g>
<g opacity="0.41">
<path d="M244.422 116.543C244.36 116.552 244.298 116.552 244.236 116.543C244.068 116.496 243.925 116.385 243.841 116.235C243.756 116.086 243.736 115.91 243.786 115.746C243.819 115.643 247.101 105.081 257.185 106.521C257.361 106.547 257.519 106.639 257.624 106.778C257.73 106.916 257.775 107.09 257.748 107.261C257.722 107.431 257.627 107.584 257.484 107.687C257.341 107.789 257.162 107.833 256.986 107.807C248.075 106.521 245.178 115.727 245.052 116.119C245.005 116.244 244.919 116.353 244.807 116.429C244.694 116.505 244.559 116.545 244.422 116.543Z" fill="white"/>
</g>
<g opacity="0.41">
<path d="M254.725 102.921C254.577 102.927 254.431 102.884 254.311 102.801C254.191 102.717 254.103 102.596 254.062 102.458C250.614 90.6426 261.017 86.3291 261.123 86.2841C261.286 86.2184 261.469 86.2181 261.631 86.2832C261.794 86.3483 261.924 86.4735 261.992 86.6312C262.059 86.7889 262.06 86.9662 261.992 87.1242C261.925 87.2821 261.796 87.4077 261.634 87.4734C261.249 87.6276 252.219 91.4269 255.362 102.105C255.409 102.268 255.388 102.442 255.304 102.59C255.219 102.738 255.078 102.848 254.911 102.895C254.85 102.913 254.788 102.921 254.725 102.921Z" fill="white"/>
</g>
<g opacity="0.41">
<path d="M266.036 83.4492C265.888 83.4549 265.742 83.4124 265.622 83.3285C265.502 83.2446 265.414 83.1242 265.373 82.9863C263.709 77.4578 263.914 72.8163 265.983 69.1906C267.504 66.5242 269.996 64.5028 272.971 63.5206C273.056 63.4922 273.146 63.4809 273.236 63.4874C273.326 63.4938 273.413 63.518 273.493 63.5583C273.573 63.5986 273.643 63.6542 273.7 63.7218C273.757 63.7894 273.799 63.8675 273.824 63.9514C273.849 64.0353 273.856 64.1232 273.844 64.2098C273.833 64.2964 273.804 64.3798 273.758 64.455C273.712 64.5301 273.651 64.5955 273.579 64.6471C273.506 64.6986 273.423 64.7353 273.336 64.7549C270.701 65.6626 268.495 67.4673 267.13 69.8335C265.247 73.1442 265.088 77.4449 266.646 82.6263C266.67 82.7074 266.678 82.7923 266.668 82.8762C266.659 82.9601 266.633 83.0414 266.591 83.1154C266.549 83.1894 266.492 83.2547 266.424 83.3076C266.357 83.3604 266.279 83.3998 266.195 83.4235C266.143 83.439 266.09 83.4476 266.036 83.4492Z" fill="white"/>
</g>
<g opacity="0.41">
<path d="M317.352 77.6892C317.176 77.6892 317.008 77.6215 316.883 77.501C316.759 77.3804 316.689 77.2169 316.689 77.0464C316.285 63.3728 324.645 58.1143 325.016 57.8957C325.09 57.8436 325.174 57.8067 325.263 57.7874C325.351 57.768 325.443 57.7666 325.533 57.7832C325.622 57.7999 325.707 57.8342 325.782 57.884C325.857 57.9339 325.921 57.9982 325.97 58.073C326.018 58.1478 326.05 58.2314 326.063 58.3187C326.077 58.406 326.072 58.4951 326.048 58.5804C326.025 58.6657 325.984 58.7454 325.927 58.8145C325.87 58.8836 325.8 58.9407 325.719 58.9821C325.64 59.0336 317.631 64.125 318.015 76.9821C318.015 77.1526 317.945 77.3161 317.821 77.4367C317.697 77.5572 317.528 77.625 317.352 77.625V77.6892Z" fill="white"/>
</g>
<path d="M321.231 149.143C320.294 148.099 319.428 146.997 318.638 145.845H301.838C301.838 145.845 294.764 145.845 288.578 138.523C288.578 138.523 298.947 141.737 307.354 141.21C313.356 140.924 319.368 140.941 325.368 141.261C325.368 141.261 320.734 145.395 321.231 149.143Z" fill="#F7A48B"/>
<path d="M526.88 33.9429H444.761C440.525 33.9429 437.09 37.2729 437.09 41.3807V92.7192C437.09 96.827 440.525 100.157 444.761 100.157H526.88C531.117 100.157 534.551 96.827 534.551 92.7192V41.3807C534.551 37.2729 531.117 33.9429 526.88 33.9429Z" fill="#E6E7E8"/>
<path opacity="0.28" d="M534.551 41.3807V44.8714H437.09V41.3807C437.09 40.404 437.289 39.4368 437.674 38.5344C438.06 37.632 438.625 36.812 439.337 36.1214C440.049 35.4307 440.895 34.8828 441.826 34.509C442.756 34.1353 443.754 33.9429 444.761 33.9429H526.88C528.915 33.9429 530.866 34.7265 532.305 36.1214C533.743 37.5162 534.551 39.4081 534.551 41.3807Z" fill="#F9CF00"/>
<path d="M501.401 42.9427C503.232 42.9427 504.716 41.5036 504.716 39.7284C504.716 37.9532 503.232 36.5142 501.401 36.5142C499.571 36.5142 498.086 37.9532 498.086 39.7284C498.086 41.5036 499.571 42.9427 501.401 42.9427Z" fill="#E6E7E8"/>
<path d="M513.335 42.9427C515.166 42.9427 516.65 41.5036 516.65 39.7284C516.65 37.9532 515.166 36.5142 513.335 36.5142C511.505 36.5142 510.02 37.9532 510.02 39.7284C510.02 41.5036 511.505 42.9427 513.335 42.9427Z" fill="#E6E7E8"/>
<path d="M525.269 42.9427C527.1 42.9427 528.584 41.5036 528.584 39.7284C528.584 37.9532 527.1 36.5142 525.269 36.5142C523.439 36.5142 521.954 37.9532 521.954 39.7284C521.954 41.5036 523.439 42.9427 525.269 42.9427Z" fill="#E6E7E8"/>
<path d="M458.969 75.7285H453.002V93.0856H458.969V75.7285Z" fill="white"/>
<path d="M473.555 63.5142H467.588V93.0855H473.555V63.5142Z" fill="#F9CF00"/>
<path d="M490.13 68.0142H484.163V93.0855H490.13V68.0142Z" fill="white"/>
<path d="M505.379 58.3713H499.412V93.0856H505.379V58.3713Z" fill="#F9CF00"/>
<path d="M521.291 51.2998H515.324V93.0854H521.291V51.2998Z" fill="white"/>
<path d="M332.999 73.7998C334.565 72.8823 336.233 72.1403 337.972 71.5884C339.717 71.0148 341.54 70.6921 343.382 70.6305C345.254 70.5684 347.114 70.9362 348.812 71.7041C350.499 72.5195 351.954 73.7249 353.048 75.2141L353.008 75.1691C354.133 76.4427 354.963 77.9356 355.442 79.5469C355.925 81.1379 356.138 82.7946 356.071 84.4519L355.985 85.6862C355.945 86.0976 355.853 86.5026 355.786 86.9076C355.643 87.7205 355.446 88.5236 355.196 89.3119C354.958 90.1026 354.626 90.8548 354.334 91.6262L353.24 93.8569L352.823 93.0469C354.743 93.3911 356.611 93.9655 358.385 94.7569C360.174 95.5332 361.839 96.5527 363.331 97.7848C364.069 98.4196 364.754 99.1096 365.38 99.8483C365.992 100.604 366.532 101.414 366.991 102.265C367.883 103.983 368.436 105.847 368.622 107.762C368.675 108.238 368.675 108.72 368.708 109.195C368.741 109.671 368.708 110.14 368.708 110.616C368.667 111.114 368.578 111.607 368.443 112.088C368.333 112.554 368.196 113.013 368.032 113.464C367.398 115.281 366.433 116.973 365.181 118.459C362.669 121.452 359.146 123.488 355.236 124.206C354.269 124.38 353.289 124.475 352.306 124.489C351.338 124.489 350.403 124.489 349.448 124.489L343.759 124.444L332.369 124.322L326.681 124.258C325.746 124.258 324.745 124.213 323.863 124.225C323.455 124.264 323.079 124.456 322.815 124.759C322.683 124.911 322.582 125.085 322.517 125.273C322.457 125.453 322.431 125.691 322.384 125.916C322.08 127.745 321.614 129.545 320.992 131.297C320.674 132.173 320.256 133.012 319.746 133.798C319.268 134.607 318.523 135.237 317.631 135.585C318.487 135.195 319.186 134.542 319.62 133.727C320.077 132.927 320.45 132.085 320.733 131.213C321.286 129.463 321.681 127.669 321.914 125.852C321.936 125.611 321.978 125.373 322.04 125.138C322.114 124.886 322.238 124.65 322.404 124.444C322.745 124.026 323.239 123.752 323.783 123.679C324.798 123.628 325.699 123.634 326.667 123.615L332.356 123.55L343.746 123.435L349.402 123.428C350.35 123.428 351.311 123.428 352.239 123.428C353.154 123.408 354.066 123.314 354.964 123.145C358.584 122.451 361.836 120.541 364.147 117.752C365.287 116.37 366.165 114.803 366.739 113.123C366.89 112.702 367.014 112.273 367.11 111.838C367.222 111.429 367.296 111.012 367.329 110.59V109.253C367.329 108.816 367.329 108.366 367.256 107.929C367.101 106.169 366.607 104.453 365.798 102.87C365.386 102.085 364.898 101.34 364.339 100.645C363.77 99.9534 363.142 99.3083 362.463 98.7169C361.066 97.5458 359.503 96.5759 357.822 95.8369C356.15 95.0762 354.389 94.5171 352.577 94.1719L351.822 94.0369L352.16 93.3941L353.227 91.2726C353.506 90.5333 353.844 89.8134 354.089 89.0676C354.339 88.3237 354.543 87.5659 354.699 86.7984C354.765 86.4191 354.871 86.0334 354.911 85.6476L355.024 84.4841C355.12 82.9278 354.955 81.3666 354.533 79.8619C354.129 78.3643 353.399 76.968 352.392 75.7669L352.359 75.7284C351.363 74.3069 350.028 73.1401 348.467 72.3277C346.874 71.5389 345.11 71.1291 343.322 71.132C341.526 71.1348 339.74 71.3881 338.018 71.8841C336.28 72.3481 334.597 72.9903 332.999 73.7998Z" fill="#F29681"/>
<path d="M285.263 133.585C285.005 132.191 284.87 130.778 284.858 129.362C284.83 127.94 284.907 126.517 285.091 125.106C285.44 122.248 286.388 119.49 287.875 117C288.644 115.744 289.583 114.594 290.666 113.58C291.765 112.574 292.993 111.709 294.32 111.008C296.991 109.675 299.91 108.87 302.905 108.643C304.384 108.514 305.882 108.514 307.328 108.52H311.69C314.601 108.559 317.505 108.572 320.415 108.63C326.236 108.711 332.055 108.878 337.872 109.131C332.051 109.38 326.232 109.547 320.415 109.633C317.505 109.69 314.601 109.703 311.69 109.742H307.328C305.862 109.742 304.444 109.742 303.025 109.883C300.201 110.075 297.442 110.798 294.903 112.011C293.659 112.641 292.501 113.418 291.455 114.325C290.428 115.258 289.521 116.31 288.757 117.456C287.24 119.812 286.211 122.433 285.727 125.17C285.184 127.943 285.028 130.773 285.263 133.585Z" fill="#F29681"/>
<path d="M272.003 93.7283C274.707 93.1807 277.503 93.2291 280.184 93.8698C282.914 94.4864 285.472 95.6709 287.683 97.3412C289.879 99.0247 291.703 101.119 293.047 103.5C294.379 105.83 295.31 108.355 295.805 110.976C294.825 108.548 293.604 106.219 292.158 104.02C291.441 102.944 290.637 101.925 289.751 100.973C288.884 100.019 287.925 99.1477 286.887 98.3698C285.86 97.5713 284.749 96.8797 283.572 96.3062C282.402 95.7197 281.182 95.2314 279.926 94.8469C277.363 94.0689 274.688 93.6913 272.003 93.7283Z" fill="#F29681"/>
<path d="M313.772 72.5142C313.951 75.3066 314.563 78.0568 315.589 80.672C316.489 83.2573 318.214 85.4979 320.514 87.0696C322.814 88.6413 325.571 89.4627 328.385 89.4148C331.281 89.4683 334.174 89.1899 337.004 88.5856C334.267 89.6911 331.347 90.3117 328.385 90.4177H327.264L326.137 90.3277C325.761 90.2988 325.386 90.2473 325.016 90.1734C324.641 90.1176 324.27 90.0425 323.903 89.9484C322.415 89.5819 321.009 88.9568 319.752 88.1034C318.507 87.2377 317.429 86.1647 316.57 84.9341C315.733 83.7154 315.077 82.3889 314.621 80.9934C313.722 78.257 313.433 75.367 313.772 72.5142Z" fill="#F29681"/>
<path d="M288.578 65.4429C290.179 66.5904 291.495 68.0709 292.43 69.7757C293.411 71.5106 293.933 73.4544 293.948 75.4328C293.939 77.4141 293.404 79.3598 292.397 81.0836C291.434 82.7674 290.136 84.249 288.578 85.4421C289.716 83.9486 290.685 82.3408 291.469 80.6464C291.668 80.235 291.793 79.7978 291.966 79.3607C292.138 78.9236 292.244 78.4993 292.324 78.075C292.535 77.2073 292.635 76.3178 292.622 75.4264C292.609 73.6289 292.226 71.852 291.495 70.2C290.745 68.4956 289.764 66.8957 288.578 65.4429Z" fill="#F29681"/>
<path opacity="0.18" d="M416.537 16.5857L285.349 195.3H336.977L450.761 17.0678C449.034 16.3771 447.159 16.1014 445.298 16.2643L416.537 16.5857Z" fill="white"/>
<path opacity="0.18" d="M363.431 16.2063V16.2642L250.754 195.3H198.158C193.302 195.298 188.645 193.427 185.211 190.097C181.777 186.768 179.847 182.252 179.846 177.544V165.362L288.578 16.2642L363.431 16.2063Z" fill="white"/>
<path d="M445.146 49.7378V94.3713H526.45V92.5584H447.035V49.7378H445.146Z" fill="#F9CF00"/>
<path d="M200.153 57.0857H121.747C116.485 57.0857 112.22 61.2216 112.22 66.3235V170.633C112.22 175.735 116.485 179.871 121.747 179.871H200.153C205.415 179.871 209.681 175.735 209.681 170.633V66.3235C209.681 61.2216 205.415 57.0857 200.153 57.0857Z" fill="#E6E7E8"/>
<path opacity="0.28" d="M209.681 66.3235V68.0142H112.22V66.3235C112.221 63.874 113.226 61.5253 115.012 59.7933C116.798 58.0612 119.221 57.0874 121.747 57.0857H200.153C202.68 57.0874 205.102 58.0612 206.888 59.7933C208.675 61.5253 209.679 63.874 209.681 66.3235Z" fill="#F9CF00"/>
<path d="M177.194 64.7998C178.658 64.7998 179.846 63.6486 179.846 62.2284C179.846 60.8082 178.658 59.657 177.194 59.657C175.729 59.657 174.542 60.8082 174.542 62.2284C174.542 63.6486 175.729 64.7998 177.194 64.7998Z" fill="#E6E7E8"/>
<path d="M188.465 64.7998C189.929 64.7998 191.117 63.6486 191.117 62.2284C191.117 60.8082 189.929 59.657 188.465 59.657C187 59.657 185.813 60.8082 185.813 62.2284C185.813 63.6486 187 64.7998 188.465 64.7998Z" fill="#E6E7E8"/>
<path d="M199.073 64.7998C200.537 64.7998 201.725 63.6486 201.725 62.2284C201.725 60.8082 200.537 59.657 199.073 59.657C197.608 59.657 196.421 60.8082 196.421 62.2284C196.421 63.6486 197.608 64.7998 199.073 64.7998Z" fill="#E6E7E8"/>
<path d="M138.408 75.7285H121.833C120.185 75.7285 118.85 77.0237 118.85 78.6214C118.85 80.219 120.185 81.5142 121.833 81.5142H138.408C140.056 81.5142 141.392 80.219 141.392 78.6214C141.392 77.0237 140.056 75.7285 138.408 75.7285Z" fill="#F9CF00"/>
<path d="M137.745 113.014H121.17C119.522 113.014 118.187 114.309 118.187 115.907C118.187 117.505 119.522 118.8 121.17 118.8H137.745C139.393 118.8 140.729 117.505 140.729 115.907C140.729 114.309 139.393 113.014 137.745 113.014Z" fill="#F9CF00"/>
<path d="M138.408 143.871H121.833C120.185 143.871 118.85 145.166 118.85 146.764C118.85 148.362 120.185 149.657 121.833 149.657H138.408C140.056 149.657 141.392 148.362 141.392 146.764C141.392 145.166 140.056 143.871 138.408 143.871Z" fill="#F9CF00"/>
<path d="M138.408 165.085H121.833C120.185 165.085 118.85 166.381 118.85 167.978C118.85 169.576 120.185 170.871 121.833 170.871H138.408C140.056 170.871 141.392 169.576 141.392 167.978C141.392 166.381 140.056 165.085 138.408 165.085Z" fill="#F9CF00"/>
<path opacity="0.28" d="M199.736 86.657H132.11C131.011 86.657 130.121 87.5204 130.121 88.5856C130.121 89.6507 131.011 90.5141 132.11 90.5141H199.736C200.834 90.5141 201.725 89.6507 201.725 88.5856C201.725 87.5204 200.834 86.657 199.736 86.657Z" fill="#F9CF00"/>
<path opacity="0.28" d="M181.172 124.585H132.11C131.011 124.585 130.121 125.449 130.121 126.514C130.121 127.579 131.011 128.443 132.11 128.443H181.172C182.27 128.443 183.161 127.579 183.161 126.514C183.161 125.449 182.27 124.585 181.172 124.585Z" fill="#F9CF00"/>
<path opacity="0.28" d="M152.663 134.228H132.11C131.011 134.228 130.121 135.092 130.121 136.157C130.121 137.222 131.011 138.085 132.11 138.085H152.663C153.761 138.085 154.652 137.222 154.652 136.157C154.652 135.092 153.761 134.228 152.663 134.228Z" fill="#F9CF00"/>
<path opacity="0.28" d="M181.172 155.443H132.11C131.011 155.443 130.121 156.306 130.121 157.371C130.121 158.436 131.011 159.3 132.11 159.3H181.172C182.27 159.3 183.161 158.436 183.161 157.371C183.161 156.306 182.27 155.443 181.172 155.443Z" fill="#F9CF00"/>
<path opacity="0.28" d="M200.399 134.228H162.608C161.509 134.228 160.619 135.092 160.619 136.157C160.619 137.222 161.509 138.085 162.608 138.085H200.399C201.497 138.085 202.388 137.222 202.388 136.157C202.388 135.092 201.497 134.228 200.399 134.228Z" fill="#F9CF00"/>
<path opacity="0.28" d="M168.575 96.9426H132.11C131.011 96.9426 130.121 97.8061 130.121 98.8712C130.121 99.9363 131.011 100.8 132.11 100.8H168.575C169.673 100.8 170.564 99.9363 170.564 98.8712C170.564 97.8061 169.673 96.9426 168.575 96.9426Z" fill="#F9CF00"/>
<path opacity="0.28" d="M194.432 107.229H148.022C146.923 107.229 146.033 108.092 146.033 109.157C146.033 110.222 146.923 111.086 148.022 111.086H194.432C195.53 111.086 196.421 110.222 196.421 109.157C196.421 108.092 195.53 107.229 194.432 107.229Z" fill="#F9CF00"/>
<path d="M425.932 333.456H420.522V378.019H425.932V333.456Z" fill="#BCBEC0"/>
<path d="M430.44 371.905H416.02V400.744H430.44V371.905Z" fill="#A7A9AC"/>
<path d="M447.466 331.032H389.082V329.194H447.32C451.298 328.405 455.059 326.813 458.359 324.52C465.487 319.5 468.735 311.997 468.019 302.213V302.142L468.337 283.262H470.234L469.909 302.142C470.857 315.18 464.724 322.347 459.407 326.07C455.868 328.539 451.819 330.234 447.539 331.039L447.466 331.032Z" fill="#F9CF00"/>
<path d="M344.82 407.732C341.22 411.229 328.59 414.726 328.59 414.726C306.088 421.495 291.628 416.609 288.028 415.118C287.311 414.841 286.674 414.4 286.171 413.832C285.932 413.561 285.765 413.236 285.687 412.887C285.329 410.927 289.851 410.38 289.851 410.38L302.448 406.883C311.458 405.134 313.261 400.769 313.261 400.769C315.065 395.524 318.148 396.912 318.148 396.912L341.22 399.857C343.374 401.965 344.656 404.768 344.82 407.732Z" fill="#F9CF00"/>
<path d="M369.159 376.276L377.248 387.642L385.356 390.265C385.356 390.265 393.233 379.658 393.803 379.716C394.373 379.774 394.366 373.66 394.366 373.66L384.421 364.924L369.159 376.276Z" fill="#F9B499"/>
<path d="M321.39 385.887L318.168 396.886C318.168 396.886 324.095 398.436 321.39 403.521C321.39 403.521 336.712 406.857 341.22 399.869V391.872L321.39 385.887Z" fill="#F9B499"/>
<path d="M464.399 204.859C463.393 205.059 462.493 205.598 461.858 206.381C461.223 207.163 460.895 208.139 460.932 209.134L462.019 265.5L463.71 299.417C463.71 299.417 473.893 305.26 473.794 293.586C473.794 293.586 476.4 220.75 469.153 208.517C469.186 208.504 467.867 204.274 464.399 204.859Z" fill="#F9CF00"/>
<path opacity="0.4" d="M464.399 204.859C463.393 205.059 462.493 205.598 461.858 206.381C461.223 207.163 460.895 208.139 460.932 209.134L462.019 265.5L463.71 299.417C463.71 299.417 473.893 305.26 473.794 293.586C473.794 293.586 476.4 220.75 469.153 208.517C469.186 208.504 467.867 204.274 464.399 204.859Z" fill="white"/>
<path d="M424.831 193.435C424.632 185.361 423.227 183.15 423.227 183.15L429.976 176.541C430.978 177.02 432.042 177.366 433.139 177.57C434.942 177.904 438.549 177.904 442.156 185.766C445.272 192.587 424.831 193.435 424.831 193.435Z" fill="#F9B499"/>
<path d="M424.831 193.435C424.831 193.435 436.726 183.928 429.976 176.554C430.978 177.033 432.042 177.379 433.139 177.583C434.942 177.917 438.549 177.917 442.156 185.779C445.272 192.587 424.831 193.435 424.831 193.435Z" fill="#F7A48B"/>
<path d="M420.973 186.653C427.692 186.653 433.139 177.069 433.139 165.246C433.139 153.423 427.692 143.839 420.973 143.839C414.254 143.839 408.807 153.423 408.807 165.246C408.807 177.069 414.254 186.653 420.973 186.653Z" fill="#F9B499"/>
<path d="M451.888 178.887C450.932 179.377 449.922 179.763 448.878 180.038C448.357 180.193 447.889 180.481 447.522 180.873C447.156 181.264 446.905 181.744 446.797 182.262C446.518 183.368 445.378 184.628 441.678 184.725C441.678 184.725 437.647 177.261 433.139 177.582C433.139 177.582 427.735 177.042 427.284 172.677C426.834 168.312 423.472 169.463 423.472 169.463C423.472 169.463 419.819 171.784 421.523 163.035C421.523 163.035 414.767 155.635 413.136 148.847C411.513 151.372 410.361 154.156 409.735 157.069C409.735 157.069 402.508 143.569 416.928 139.757C416.928 139.757 423.903 127.813 433.934 139.757C433.934 139.757 447.566 133.328 447.566 149.953C447.566 149.953 460.163 156.072 453.877 168.306C453.871 168.306 459.022 175.185 451.888 178.887Z" fill="white"/>
<path opacity="0.2" d="M451.888 178.888C450.932 179.377 449.922 179.763 448.878 180.038C448.357 180.193 447.889 180.482 447.522 180.873C447.156 181.264 446.905 181.745 446.797 182.263C446.518 183.368 445.378 184.628 441.678 184.725C441.678 184.725 437.647 177.261 433.139 177.583C433.139 177.583 427.735 177.043 427.284 172.678C426.834 168.313 423.472 169.463 423.472 169.463C423.472 169.463 419.819 171.784 421.523 163.035C421.523 163.035 429.539 147.311 435.844 158.67C435.844 158.67 437.647 160.418 437.647 170.029C437.647 170.055 438.191 179.858 451.888 178.888Z" fill="black"/>
<path d="M427.284 172.678C429.525 172.678 431.342 170.525 431.342 167.869C431.342 165.213 429.525 163.061 427.284 163.061C425.043 163.061 423.227 165.213 423.227 167.869C423.227 170.525 425.043 172.678 427.284 172.678Z" fill="#F9B499"/>
<path d="M410.61 253.928C410.61 253.928 393.491 262.665 376.366 259.167C376.366 259.167 371.858 265.596 363.769 266.31L349.183 264.902V260.042C349.183 260.042 354.301 256.088 375.259 252.829C381.974 251.169 388.42 248.616 394.413 245.243C394.413 245.243 395.653 244.44 397.429 243.315C400.977 241.103 406.711 237.696 408.986 237.188L408.833 252.167L410.61 253.928Z" fill="#F9B499"/>
<path d="M410.61 253.928C410.61 253.928 393.491 262.665 376.366 259.168C376.366 259.168 390.72 252.546 397.403 243.328C400.95 241.116 406.685 237.709 408.959 237.201L408.807 252.18L410.61 253.928Z" fill="#F7A48B"/>
<path d="M174.495 270.54H168.19V419.965H174.495V270.54Z" fill="#BCBEC0"/>
<path d="M233.973 284.785C233.973 284.785 236.154 310.577 177.2 307.253C177.2 307.253 173.766 295.039 178.201 284.11C178.201 284.11 203.933 258.499 229.027 278.241L233.973 284.785Z" fill="white"/>
<path opacity="0.2" d="M233.973 284.785C233.973 284.785 236.154 310.577 177.2 307.253C177.2 307.253 173.766 295.039 178.201 284.11C178.201 284.11 203.933 258.499 229.027 278.241L233.973 284.785Z" fill="black"/>
<path d="M146.358 253.369L157.377 299.378H164.225L155.381 251.53C155.196 250.451 154.617 249.472 153.749 248.773C152.881 248.074 151.782 247.702 150.654 247.725H150.534C149.856 247.781 149.198 247.979 148.606 248.305C148.014 248.631 147.502 249.078 147.105 249.614C146.709 250.15 146.436 250.764 146.307 251.412C146.178 252.06 146.195 252.728 146.358 253.369Z" fill="#BCBEC0"/>
<path d="M238.482 249.383L242.062 251.723C242.833 252.224 243.456 252.913 243.866 253.721C244.277 254.529 244.462 255.427 244.402 256.326L241.644 299.397H234.875L236.784 263.571L238.482 249.383Z" fill="#BCBEC0"/>
<path d="M238.482 234.713H231.275V263.552H238.482V234.713Z" fill="#F9B499"/>
<path d="M240.384 204.319C239.721 206.89 237.507 208.382 236.36 209.018C236.13 209.146 235.893 209.262 235.651 209.365C234.147 201.584 231.515 194.048 227.834 186.981C227.06 185.49 226.199 184.044 225.255 182.648C219.228 174.722 208.746 172.221 208.746 172.221L208.613 168.589V168.145C217.14 164.578 219.142 153.887 219.513 151.225C219.566 150.833 219.586 150.615 219.586 150.615L221.708 151.772V152.254L221.953 165.349C219.831 173.327 229.485 176.593 229.485 176.593C236.691 180.083 233.993 191.449 233.993 191.449C233.071 200.173 240.384 204.319 240.384 204.319Z" fill="white"/>
<path opacity="0.2" d="M240.384 204.319C239.721 206.89 237.507 208.382 236.36 209.018L236.002 209.083C234.533 201.335 231.774 193.87 227.834 186.981C227.064 185.641 226.202 184.353 225.255 183.124C219.228 175.204 208.746 172.703 208.746 172.703L208.593 168.621C217.12 165.047 219.109 153.97 219.473 151.264C219.526 150.872 219.546 150.653 219.546 150.653L221.668 152.273L221.913 165.368C219.792 173.346 229.445 176.612 229.445 176.612C236.652 180.103 233.953 191.468 233.953 191.468C233.071 200.173 240.384 204.319 240.384 204.319Z" fill="black"/>
<path d="M241.797 235.003L233.973 239.085L158.272 237.336C147.14 236.05 142.665 230.175 141.034 227.05C140.776 226.544 140.675 225.976 140.745 225.416C140.814 224.855 141.05 224.326 141.425 223.894C142.85 222.242 145.469 218.597 148.817 211.198L149.242 210.24C149.242 210.24 165.465 167.426 194.326 167.863L208.666 172.176C208.666 172.176 226.66 175.391 232.176 195.39C235.079 204.225 237.189 213.286 238.482 222.473C238.482 222.473 239.045 227.41 242.42 230.766C242.724 231.059 242.953 231.417 243.09 231.811C243.226 232.205 243.266 232.625 243.205 233.036C243.145 233.448 242.986 233.84 242.741 234.181C242.497 234.523 242.173 234.804 241.797 235.003Z" fill="#F9CF00"/>
<path d="M219.56 149.085C219.573 151.933 219.125 154.766 218.234 157.48C216.43 162.964 212.89 167.123 208.587 168.595C207.481 168.983 206.315 169.181 205.139 169.18C200.83 169.18 196.964 166.551 194.326 162.373C191.895 158.346 190.648 153.75 190.719 149.085C190.721 147.963 190.787 146.843 190.918 145.729C192.071 136.221 197.992 128.983 205.139 128.983C213.102 128.983 219.56 137.983 219.56 149.085Z" fill="#F9B499"/>
<path opacity="0.2" d="M192.973 173.616L192.025 174.388C190.594 175.543 189.599 177.125 189.194 178.888L188.014 184.031L179.998 189.469C179.694 189.675 179.449 189.954 179.288 190.278C179.127 190.602 179.054 190.961 179.077 191.321L179.905 204.126L168.19 216.34C155.593 216.34 148.837 211.198 148.837 211.198L149.261 210.24C149.261 210.24 165.485 167.426 194.346 167.863C192.522 170.055 192.973 173.616 192.973 173.616Z" fill="black"/>
<path d="M202.136 203.477H179.859L179.077 191.327C179.054 190.968 179.127 190.609 179.288 190.284C179.449 189.96 179.694 189.682 179.998 189.475L188.014 184.037L189.724 186.396L202.136 203.477Z" fill="#F9CF00"/>
<path opacity="0.3" d="M202.136 203.477H179.859L179.077 191.327C179.054 190.968 179.127 190.609 179.288 190.284C179.449 189.96 179.694 189.682 179.998 189.475L188.014 184.037L189.724 186.396L202.136 203.477Z" fill="white"/>
<path opacity="0.2" d="M182.803 197.447L188.405 203.477H179.859L179.077 191.327C179.054 190.968 179.127 190.609 179.288 190.284C179.449 189.96 179.694 189.682 179.998 189.475L188.014 184.037L189.724 186.396L183.28 191.468C182.789 191.857 182.393 192.348 182.121 192.904C181.849 193.46 181.708 194.067 181.709 194.683C181.706 195.704 182.096 196.689 182.803 197.447Z" fill="black"/>
<path d="M208.434 171.958C208.434 171.958 215.064 180.958 208.739 203.457H227.462C227.462 203.457 228.125 186.203 223.107 180.199C223.107 180.218 218.346 174.574 208.434 171.958Z" fill="#F9CF00"/>
<path opacity="0.3" d="M208.434 171.958C208.434 171.958 215.064 180.958 208.739 203.457H227.462C227.462 203.457 228.125 186.203 223.107 180.199C223.107 180.218 218.346 174.574 208.434 171.958Z" fill="white"/>
<path d="M231.268 259.18H158.272V263.552H231.268V259.18Z" fill="#BCBEC0"/>
<path d="M150.123 235.221L148.837 263.571H158.272V237.336C158.272 237.336 152.782 236.571 150.123 235.221Z" fill="#F9B499"/>
<path d="M150.123 235.221L149.838 241.765L155.587 241.27V236.873C153.68 236.634 151.832 236.075 150.123 235.221Z" fill="#F7A48B"/>
<path d="M155.573 257.38C155.573 257.38 145.628 264.304 158.272 262.613V259.18C158.272 259.18 155.573 259.952 155.573 257.38Z" fill="#F7A48B"/>
<path d="M219.559 149.085C219.573 151.933 219.125 154.766 218.233 157.48C214.255 156.195 210.105 135.019 210.105 135.019C207.858 129.69 201.486 140.516 201.486 140.516C197.382 149.265 192.038 146.423 190.951 145.729C192.105 136.221 198.025 128.983 205.172 128.983C213.102 128.983 219.559 137.983 219.559 149.085Z" fill="#F7A48B"/>
<path d="M177.2 307.24C177.2 307.24 154.658 285.383 166.387 273.169H234.875C234.875 273.169 235.777 280.665 233.973 284.779C233.973 284.779 206.943 265.307 188.014 280.163C188.014 280.157 178.102 286.27 177.2 307.24Z" fill="white"/>
<path d="M157.377 299.378H243.666C245.159 299.378 246.591 299.953 247.646 300.977C248.702 302 249.295 303.389 249.295 304.836V308.115H157.377V299.378Z" fill="#939598"/>
<path d="M205.133 304.624H195.221V385.887H205.133V304.624Z" fill="#BCBEC0"/>
<path d="M192.522 382.39L207.672 382.544V392.129L255.779 416.616V419.611H242.486V416.616L207.672 402.377H203.336V419.611H207.672V421.63H191.899V419.303H196.122V401.65H192.841L157.92 416.616V418.994H143.858V416.616L192.522 392.001V382.39Z" fill="#939598"/>
<path d="M353.831 260.055H282.637V263.552H353.831V260.055Z" fill="#BCBEC0"/>
<path d="M266.42 205.881L279.939 261.803H316.437L302.726 205.881H266.42Z" fill="#D1D3D4"/>
<path opacity="0.3" d="M266.42 205.881L309.29 261.803H316.437L313.328 249.132L284.381 205.881H266.42Z" fill="white"/>
<path d="M302.726 205.881H305.378L318.691 260.055H316.006L302.726 205.881Z" fill="#BCBEC0"/>
<path d="M447.559 321.222H360.142L359.241 329.091C364.445 337.737 381.902 354.702 387.862 360.392C388.128 360.64 388.338 360.939 388.48 361.269C388.623 361.6 388.694 361.954 388.69 362.312C388.687 362.67 388.608 363.024 388.459 363.351C388.309 363.678 388.093 363.973 387.823 364.217C382.465 368.843 376.833 373.162 370.956 377.151C361.946 381.516 354.739 371.031 354.739 371.031L351.132 395.498C324.095 392.875 319.593 385.855 319.593 385.855L329.512 322.071C327.218 316.06 326.197 311.991 325.812 309.252C325.149 304.431 326.475 303.724 326.475 303.724C341.479 286.245 394.386 267.897 394.386 267.897L426.834 271.388L452.067 272.262L461.979 293.239C462.881 321.222 447.559 321.222 447.559 321.222Z" fill="white"/>
<path opacity="0.2" d="M335.233 392.997C335.233 392.997 352.113 324.854 359.764 324.797L359.274 329.091L354.772 371.031L351.165 395.498C351.165 395.498 340.067 393.987 335.233 392.997Z" fill="black"/>
<path opacity="0.2" d="M447.559 321.222H364.929C389.838 319.782 400.97 315.97 405.936 312.827C406.664 312.363 407.291 311.764 407.779 311.065C408.267 310.365 408.607 309.578 408.779 308.75C408.951 307.921 408.952 307.068 408.781 306.24C408.611 305.411 408.272 304.624 407.786 303.923C401.911 295.476 390.355 295.065 384.481 295.463C382.552 295.595 380.656 296.013 378.859 296.704C371.93 299.378 367.707 299.378 367.707 299.378C359.042 298.504 351.981 303.75 351.981 303.75C340.212 313.36 325.819 309.285 325.819 309.285C325.156 304.463 326.482 303.756 326.482 303.756C341.485 286.277 394.393 267.93 394.393 267.93L426.84 271.42L452.074 272.295L461.986 293.271C462.881 321.222 447.559 321.222 447.559 321.222Z" fill="black"/>
<path d="M463.71 299.404C463.72 299.723 463.658 300.04 463.528 300.333C463.398 300.626 463.203 300.888 462.957 301.099C462.711 301.311 462.419 301.468 462.104 301.558C461.788 301.648 461.456 301.67 461.131 301.622C456.815 301.011 451.418 300.22 448.302 299.757C447.626 299.656 447.019 299.301 446.611 298.769C446.203 298.238 446.027 297.572 446.12 296.916C447.009 290.712 448.249 281.822 448.315 281.275L438.416 293.072C438.012 293.545 437.49 293.911 436.9 294.136C436.31 294.361 435.67 294.437 435.042 294.357C401.228 290.571 394.373 267.917 394.373 267.917C408.807 260.929 410.61 253.928 410.61 253.928L408.807 252.18L409.005 232.958C410.113 213.73 416.922 206.743 416.922 206.743V201.6C416.916 200.987 417.153 200.395 417.585 199.948C431.601 185.805 440.332 185.805 440.332 185.805C449.342 184.937 448.441 194.548 448.441 194.548C451.67 199.562 454.235 208.324 456.264 218.77C461.86 247.442 463.438 288.732 463.71 299.404Z" fill="#F9CF00"/>
<path d="M429.539 264.426C426.834 273.162 420.522 275.785 420.522 275.785C403.403 286.27 366.454 292.39 366.454 292.39C358.339 301.127 343.912 300.252 343.912 300.252C342.012 300.925 340.197 301.805 338.502 302.875C332.19 302.875 335.81 295.65 335.81 295.65C336.379 295.002 337.032 294.43 337.753 293.946C345.251 288.765 363.736 286.27 363.736 286.27C370.041 281.031 388.068 271.414 388.068 271.414C401.441 265.21 406.93 259.74 409.145 256.628C409.786 255.816 410.277 254.903 410.597 253.928C416.922 259.18 429.539 264.426 429.539 264.426Z" fill="#F9B499"/>
<path d="M429.539 264.426C426.834 273.162 420.522 275.785 420.522 275.785C403.403 286.27 366.454 292.39 366.454 292.39C358.339 301.127 343.912 300.252 343.912 300.252C342.012 300.925 340.197 301.804 338.502 302.875C332.19 302.875 335.81 295.649 335.81 295.649C336.379 295.002 337.032 294.43 337.753 293.946C337.753 293.946 353.824 298.504 367.343 287.144C367.343 287.144 376.353 288.019 391.675 281.031L416.405 270.295C416.405 270.295 422.213 267.081 416.405 261.803L409.112 256.66C409.753 255.848 410.244 254.935 410.564 253.96C416.922 259.18 429.539 264.426 429.539 264.426Z" fill="#F7A48B"/>
<path opacity="0.2" d="M437.647 213.743C437.647 213.743 446.034 225.102 441.393 253.941L440.233 261.803C440.233 261.803 439.464 266.175 429.552 264.426C429.552 264.426 427.749 272.288 420.535 275.785C420.535 275.785 415.152 279.077 405.226 282.677C405.226 282.677 411.551 288.797 422.803 291.902C422.803 291.902 430.341 278.01 435.526 271.33C436.848 269.666 438.544 268.316 440.485 267.383C442.122 266.567 444.602 264.606 445.418 260.061C445.404 260.055 451.166 223.354 437.647 213.743Z" fill="black"/>
<path opacity="0.3" d="M448.461 194.522C434.942 184.911 416.922 206.736 416.922 206.736V201.593C416.916 200.98 417.153 200.389 417.585 199.941C431.601 185.798 440.332 185.798 440.332 185.798C449.362 184.911 448.461 194.522 448.461 194.522Z" fill="white"/>
<path opacity="0.2" d="M463.71 299.404C463.72 299.723 463.658 300.04 463.528 300.333C463.398 300.626 463.203 300.888 462.957 301.1C462.711 301.311 462.419 301.468 462.104 301.558C461.788 301.648 461.456 301.67 461.131 301.622C456.815 301.011 451.418 300.22 448.302 299.757C447.626 299.656 447.019 299.301 446.611 298.769C446.203 298.238 446.027 297.572 446.12 296.916C447.009 290.712 448.249 281.822 448.315 281.275C448.315 281.275 449.349 277.56 452.054 275.811C452.054 275.811 449.349 297.668 455.661 293.29C455.661 293.29 462.868 286.296 457.458 251.344L456.271 218.777C461.86 247.442 463.438 288.732 463.71 299.404Z" fill="black"/>
<path d="M399.518 376.379C397.782 385.146 394.083 393.437 388.682 400.666C383.28 407.895 376.308 413.886 368.257 418.216C367.843 418.309 367.409 418.28 367.011 418.133C366.308 417.805 365.838 416.796 367.356 413.851C367.356 413.851 378.169 396.372 375.464 391.994C375.464 391.994 371.201 388.555 376.041 385.906C376.041 385.906 379.973 382.898 381.776 387.443L389.679 380.622C391.084 379.412 391.938 377.71 392.053 375.891C392.102 375.281 392.117 374.67 392.099 374.059C392.088 373.693 392.164 373.329 392.322 372.996C392.48 372.664 392.715 372.371 393.01 372.141C393.304 371.911 393.649 371.751 394.017 371.672C394.386 371.593 394.769 371.598 395.136 371.687C396.169 371.935 397.151 372.352 398.039 372.921C398.605 373.297 399.045 373.824 399.308 374.437C399.57 375.051 399.643 375.726 399.518 376.379Z" fill="#F9CF00"/>
<path d="M408.701 386.202L402.296 393.698C402.012 394.015 401.639 394.246 401.222 394.36C400.805 394.474 400.362 394.467 399.949 394.341C398.789 394.007 397.018 394.026 395.454 396.154C394.841 397.043 394.426 398.045 394.234 399.098C393.657 402.01 391.012 410.502 379.197 418.262C379.197 418.262 371.175 424.157 367.011 418.127C367.409 418.274 367.843 418.303 368.257 418.21C376.308 413.879 383.28 407.888 388.682 400.659C394.083 393.43 397.782 385.14 399.518 376.373C399.643 375.721 399.57 375.048 399.309 374.436C399.047 373.823 398.609 373.297 398.046 372.921C398.265 372.921 400.917 373.062 406.108 379.761L408.826 383.721C409.083 384.093 409.21 384.535 409.187 384.982C409.164 385.429 408.994 385.857 408.701 386.202Z" fill="white"/>
<path d="M343.024 423.462H327.702C326.8 417.342 319.567 421.714 319.567 421.714C304.245 426.953 287.743 420.846 287.743 420.846C282.982 419.984 285.641 412.861 285.641 412.861C285.719 413.211 285.885 413.535 286.125 413.807C286.627 414.374 287.264 414.815 287.981 415.092C291.581 416.584 306.041 421.469 328.544 414.7C328.544 414.7 341.141 411.203 344.774 407.706C346.624 413.852 343.024 423.462 343.024 423.462Z" fill="white"/>
<path d="M374.596 412.977C374.596 412.977 399.83 397.664 423.26 398.333C423.26 398.333 453.002 399.869 471.924 412.103L469.219 414.726C469.219 414.726 446.677 402.511 423.26 402.948C423.26 402.948 399.564 401.991 376.717 415.806L374.596 412.977Z" fill="#BCBEC0"/>
<path d="M425.932 400.744H420.522V415.6H425.932V400.744Z" fill="#BCBEC0"/>
<path d="M473.695 423.456C477.177 423.456 480 420.719 480 417.342C480 413.966 477.177 411.229 473.695 411.229C470.212 411.229 467.389 413.966 467.389 417.342C467.389 420.719 470.212 423.456 473.695 423.456Z" fill="#A7A9AC"/>
<path d="M373.661 423.456C377.143 423.456 379.966 420.719 379.966 417.342C379.966 413.966 377.143 411.229 373.661 411.229C370.179 411.229 367.356 413.966 367.356 417.342C367.356 420.719 370.179 423.456 373.661 423.456Z" fill="#A7A9AC"/>
<path d="M423.227 423.456C426.709 423.456 429.532 420.719 429.532 417.342C429.532 413.966 426.709 411.229 423.227 411.229C419.745 411.229 416.922 413.966 416.922 417.342C416.922 420.719 419.745 423.456 423.227 423.456Z" fill="#A7A9AC"/>
<path d="M337.613 270.54H331.308V419.965H337.613V270.54Z" fill="#BCBEC0"/>
<path d="M284.441 270.54H278.136V419.965H284.441V270.54Z" fill="#BCBEC0"/>
<path d="M137.546 270.54H131.241V419.965H137.546V270.54Z" fill="#BCBEC0"/>
<path d="M190.719 154.324C192.711 154.324 194.326 152.367 194.326 149.953C194.326 147.538 192.711 145.581 190.719 145.581C188.727 145.581 187.112 147.538 187.112 149.953C187.112 152.367 188.727 154.324 190.719 154.324Z" fill="#F9B499"/>
<path d="M229.471 177.043C210.331 178.528 220.64 166.898 224.167 163.369C225.245 162.319 225.925 160.946 226.097 159.473C226.528 154.864 221.456 152.891 219.951 152.402C219.65 152.31 219.366 152.174 219.109 151.997C213.407 147.979 216.868 137.417 216.868 137.417C213.427 131.033 208.726 129.606 208.726 129.606C206.691 129.105 204.649 130.538 203.031 132.261C201.215 134.258 199.893 136.63 199.166 139.198C196.772 147.053 190.706 145.581 190.706 145.581C190.255 156.51 194.312 162.366 194.312 162.366V167.863C181.715 172.671 186.197 180.533 186.197 180.533C188.902 185.773 185.296 187.521 185.296 187.521L180.542 190.427C179.864 190.819 179.293 191.365 178.88 192.018C178.467 192.671 178.223 193.411 178.168 194.175C177.969 198.347 183.472 199.755 183.472 199.755C177.2 209.378 166.413 198 166.413 198C168.217 206.743 160.102 208.491 160.102 208.491C155.6 208.491 156.256 203.245 156.256 203.245C165.021 197.132 158.298 189.276 158.298 189.276C151.091 181.408 155.6 175.885 155.6 175.885C158.298 171.238 164.033 171.99 164.033 171.99C175.165 171.347 171.611 157.937 171.611 157.937C165.989 140.58 178.129 136.838 178.129 136.838C181.267 135.365 183.798 132.904 185.309 129.857C186.687 126.944 189.012 124.548 191.928 123.039C194.844 121.529 198.19 120.989 201.453 121.5C213.089 118.395 216.854 126.347 216.854 126.347C226.746 131.606 224.094 139.5 224.094 139.5C220.488 148.243 225.898 151.714 225.898 151.714C234.006 158.708 227.502 167.882 227.502 167.882C222.768 173.571 229.471 177.043 229.471 177.043Z" fill="white"/>
<path opacity="0.2" d="M216.854 126.36H210.543C207.821 124.249 204.747 122.605 201.453 121.5C213.089 118.408 216.854 126.36 216.854 126.36Z" fill="black"/>
<path opacity="0.2" d="M194.326 162.373V167.869C181.729 172.678 186.211 180.54 186.211 180.54C188.916 185.779 185.309 187.528 185.309 187.528L180.555 190.433C179.877 190.826 179.307 191.372 178.893 192.024C178.48 192.677 178.236 193.417 178.182 194.181C177.983 198.353 183.486 199.761 183.486 199.761C170.889 200.635 175.377 190.15 175.377 190.15C176.551 186.165 175.443 183.355 174.522 181.877C173.577 180.467 173.2 178.769 173.461 177.107C174.044 173.97 176.696 173.031 178.48 172.774C179.609 172.635 180.69 172.245 181.638 171.635C182.587 171.026 183.378 170.212 183.95 169.258C186.211 165.246 184.381 160.161 184.381 160.161C180.767 148.513 188.193 146.816 188.193 146.816C189.294 146.301 190.699 145.588 190.699 145.588C189.817 156.947 194.326 162.373 194.326 162.373Z" fill="black"/>
<path d="M210.039 178.213C209.462 181.973 205.139 182.603 205.139 182.603C197.024 182.905 193.424 175.294 193.424 175.294C191.621 170.055 194.326 167.869 194.326 167.869V162.373C195.104 163.629 196.049 164.781 197.137 165.799C197.218 165.881 197.305 165.958 197.395 166.03C197.521 166.14 197.641 166.255 197.767 166.358C199.795 168.126 202.412 169.126 205.139 169.174C206.267 169.172 207.386 168.992 208.454 168.64C208.499 168.619 208.546 168.602 208.593 168.589L208.746 172.671C209.959 175.024 210.258 176.837 210.039 178.213Z" fill="#F9B499"/>
<path d="M210.039 178.213C206.876 177.587 203.97 176.08 201.678 173.876C199.386 171.672 197.808 168.867 197.137 165.805C197.218 165.89 197.304 165.969 197.395 166.043C197.512 166.159 197.636 166.269 197.767 166.371C202.587 170.543 207.546 168.994 208.448 168.653C208.492 168.632 208.539 168.615 208.587 168.602L208.739 172.684C209.959 175.024 210.258 176.837 210.039 178.213Z" fill="#F7A48B"/>
<path d="M233.973 203.258H158.272V259.18H233.973V203.258Z" fill="#D1D3D4"/>
<path opacity="0.3" d="M164.225 203.258L203.449 259.18H228.424L182.763 203.258H164.225Z" fill="white"/>
<path opacity="0.3" d="M196.122 203.477L233.973 253.375V244.478L202.136 203.477H196.122Z" fill="white"/>
<path d="M156.939 203.258H158.265V259.187H156.939C156.577 259.187 156.229 259.047 155.973 258.799C155.717 258.551 155.573 258.214 155.573 257.862V204.583C155.573 204.231 155.717 203.895 155.973 203.646C156.229 203.398 156.577 203.258 156.939 203.258Z" fill="#BCBEC0"/>
<path d="M224.963 312.486L190.719 384.139C190.719 384.139 187.026 400.602 183.651 407.616C183.357 408.242 182.918 408.794 182.368 409.23C181.819 409.666 181.174 409.973 180.482 410.129C177.432 410.817 172.075 411.029 170.822 404.524C170.399 402.282 170.612 399.971 171.439 397.838C171.957 396.49 172.69 395.229 173.614 394.103C176.345 390.754 180.244 385.424 180.807 381.516L184.069 368.016L193.079 330.775L209.283 290.211C209.283 290.211 219.56 275.785 229.471 285.428C229.471 285.428 230.638 286 231.275 288.205C232.21 291.49 231.958 298.407 224.963 312.486Z" fill="#F9B499"/>
<path d="M231.275 288.173C222.258 284.856 217.756 296.736 217.756 296.736L184.076 367.99L193.086 330.749L209.29 290.185C209.29 290.185 219.559 275.785 229.471 285.428C229.471 285.428 230.638 285.968 231.275 288.173Z" fill="#F7A48B"/>
<path d="M198.827 319.5L166.413 383.264C166.413 391.127 161.905 401.618 161.905 401.618C160.102 403.36 155.109 405.983 155.109 405.983C151.927 407.732 151.091 405.983 151.091 405.983L147.458 399.857C146.974 399.214 147.007 398.166 147.405 396.848C149.195 390.895 158.258 379.761 158.258 379.761L175.384 315.102C181.709 273.163 201.552 280.157 201.552 280.157C220.455 285.428 198.827 319.5 198.827 319.5Z" fill="#F9B499"/>
<path d="M183.651 407.616C182.896 413.614 176.299 419.965 176.299 419.965C171.79 423.462 169.092 415.594 169.092 415.594C164.583 404.234 171.439 397.838 171.439 397.838C170.612 399.971 170.399 402.282 170.822 404.524C172.075 411.029 177.452 410.817 180.482 410.129C181.174 409.973 181.819 409.665 182.368 409.23C182.918 408.794 183.357 408.242 183.651 407.616Z" fill="#F9CF00"/>
<path d="M161.878 401.618C161.878 405.983 154.672 414.726 154.672 414.726C150.163 419.965 147.1 412.662 147.1 412.662C141.484 401.284 147.1 397.06 147.405 396.861C147.007 398.147 146.974 399.239 147.458 399.869L151.065 405.983C151.065 405.983 151.9 407.732 155.083 405.983C155.083 405.983 160.075 403.36 161.878 401.618Z" fill="#F9CF00"/>
<path d="M363.749 263.552H128.536V274.037H363.749V263.552Z" fill="#939598"/>
<path d="M195.221 236.468C198.209 236.468 200.631 234.12 200.631 231.223C200.631 228.325 198.209 225.977 195.221 225.977C192.233 225.977 189.811 228.325 189.811 231.223C189.811 234.12 192.233 236.468 195.221 236.468Z" fill="white"/>
<path opacity="0.2" d="M409.735 157.069C409.735 157.069 405.757 149.535 413.143 148.873C413.136 148.873 410.61 151.714 409.735 157.069Z" fill="black"/>
<path d="M453.307 321.222H385.045C383.239 321.222 381.776 322.641 381.776 324.392V332.91C381.776 334.66 383.239 336.079 385.045 336.079H453.307C455.112 336.079 456.576 334.66 456.576 332.91V324.392C456.576 322.641 455.112 321.222 453.307 321.222Z" fill="#F9CF00"/>
<path opacity="0.4" d="M453.307 321.222H385.045C383.239 321.222 381.776 322.641 381.776 324.392V332.91C381.776 334.66 383.239 336.079 385.045 336.079H453.307C455.112 336.079 456.576 334.66 456.576 332.91V324.392C456.576 322.641 455.112 321.222 453.307 321.222Z" fill="white"/>
<path d="M475.021 366.165C474.731 358.784 474.846 351.393 475.365 344.025C476.493 328.83 478.887 313.748 482.526 298.928C484.515 290.571 486.981 282.368 489.54 274.159C489.62 273.915 490.024 273.992 489.945 274.249C482.028 303.177 475.531 332.987 475.982 363.034C476.108 371.442 477.122 379.703 477.924 388.06C477.924 388.285 477.566 388.375 477.52 388.144C476.017 380.904 475.181 373.548 475.021 366.165Z" fill="#F9CF00"/>
<path d="M489.958 274.223C489.958 274.223 501.958 303.737 499.24 310.68C496.522 317.622 491.012 319.101 491.012 319.101C491.012 319.101 498.391 329.258 493.273 338.785C488.155 348.312 476.698 347.862 475.982 358.669C475.935 358.669 475.299 313.489 489.958 274.223Z" fill="#F9CF00"/>
<path d="M477.235 340.013C477.215 339.961 477.215 339.904 477.235 339.852C478.825 319.69 482.739 299.764 488.904 280.446C488.904 280.388 489.023 280.446 489.003 280.446C486.612 289.107 484.506 297.805 482.685 306.539C484.295 305.056 486.265 303.993 488.413 303.447C488.413 303.447 488.466 303.492 488.413 303.499C486.156 304.315 484.13 305.636 482.499 307.356C482.148 309.072 481.836 310.782 481.525 312.499C484.21 309.599 487.923 308.153 491.642 306.79M491.642 306.861C487.75 308.397 483.858 310.358 481.293 313.604C480.364 318.499 479.56 323.412 478.879 328.345C480.825 326.371 483.323 324.991 486.066 324.372C486.152 324.372 486.205 324.482 486.113 324.494C483.295 325.279 480.775 326.843 478.859 328.994C478.621 330.73 478.4 332.468 478.196 334.208C479.685 332.99 481.363 332.009 483.169 331.302C483.215 331.302 483.248 331.36 483.169 331.379C481.314 332.156 479.615 333.244 478.15 334.594H478.084C477.885 336.246 477.686 337.904 477.507 339.557C480.213 336.394 483.72 333.969 487.684 332.517C487.757 332.517 487.81 332.601 487.73 332.633C483.813 334.291 480.367 336.843 477.686 340.071C477.659 340.111 477.618 340.14 477.571 340.155C477.524 340.169 477.473 340.166 477.427 340.148C477.171 342.694 476.95 345.239 476.764 347.785C476.472 351.604 476.691 347.785 476.705 347.785C476.844 345.214 477.023 342.597 477.248 339.994L491.642 306.861Z" fill="white"/>
<path d="M486.875 300.51C489.046 299.199 491.527 298.451 494.082 298.337C494.141 298.337 494.141 298.407 494.082 298.42C491.616 298.869 489.222 299.63 486.961 300.683C486.937 300.694 486.91 300.696 486.885 300.687C486.86 300.679 486.84 300.661 486.829 300.638C486.819 300.615 486.818 300.589 486.827 300.565C486.835 300.542 486.852 300.522 486.875 300.51Z" fill="white"/>
<path d="M485.416 331.765C487.083 330.838 488.917 330.229 490.82 329.972C490.833 329.972 490.845 329.976 490.855 329.984C490.865 329.993 490.871 330.004 490.873 330.017C490.873 330.03 490.867 330.043 490.857 330.053C490.847 330.063 490.834 330.068 490.82 330.068C488.96 330.431 487.161 331.043 485.476 331.887C485.403 331.926 485.35 331.804 485.416 331.765Z" fill="white"/>
<path d="M449.11 313.752C453.925 317.494 458.287 321.754 462.112 326.449C466.029 331.418 468.916 337.077 470.612 343.111C474.225 355.682 475.69 368.743 474.948 381.773C474.548 388.99 473.282 396.138 471.175 403.071C471.152 403.12 471.11 403.158 471.058 403.178C471.006 403.197 470.948 403.195 470.897 403.174C470.855 403.158 470.82 403.129 470.797 403.092C470.774 403.055 470.765 403.011 470.771 402.968C473.661 390.679 474.556 378.027 473.423 365.47C472.256 353.146 470.028 339.672 462.815 329.252C458.87 323.588 453.771 318.921 448.746 314.157C448.467 313.894 448.852 313.534 449.11 313.752Z" fill="#F9CF00"/>
<path d="M473.834 372.94C471.295 368.227 468.229 363.799 464.691 359.736C459.148 353.5 454.421 349.02 453.93 345.137C453.44 341.254 460.428 338.895 460.428 338.895C460.428 338.895 452.028 339.73 450.078 336.195C448.129 332.659 448.447 313.052 448.447 313.052C448.447 313.052 462.722 324.54 468.563 339.679C474.404 354.818 473.834 372.94 473.834 372.94Z" fill="#F9CF00"/>
<path d="M453.234 318.452C459.069 324.938 465.009 331.823 468.145 340.013C469.207 342.846 470.106 345.735 470.837 348.666C470.983 349.251 471.135 349.842 471.275 350.434C471.281 350.465 471.281 350.498 471.275 350.53C472.601 356.586 473.575 362.709 474.192 368.871C474.192 368.871 474.132 368.922 474.132 368.871C473.714 365.779 473.23 362.661 472.654 359.536H472.567C471.346 358.924 470.032 358.501 468.676 358.283C468.589 358.283 468.609 358.122 468.676 358.129C470.012 358.268 471.321 358.586 472.567 359.074C472.05 356.245 471.467 353.416 470.777 350.665C467.901 349.767 464.934 349.172 461.926 348.891M461.926 348.839C464.891 348.924 467.832 349.378 470.678 350.189C470.552 349.72 470.426 349.251 470.313 348.769C468.399 348.178 466.448 347.708 464.472 347.361V347.303C466.428 347.482 468.36 347.85 470.24 348.402C469.577 345.992 468.914 343.606 468.072 341.279C467.4 339.375 466.589 337.519 465.646 335.725C464.086 335.228 462.493 334.835 460.879 334.549V334.471C462.404 334.467 463.919 334.721 465.354 335.224C464.691 333.938 463.922 332.652 463.113 331.45C459.798 330.512 456.41 329.567 452.909 329.952C452.9 329.943 452.895 329.93 452.895 329.917C452.895 329.904 452.9 329.891 452.909 329.882C456.264 329.277 459.486 329.997 462.715 330.827C462.397 330.332 462.052 329.882 461.741 329.374C459.738 328.62 457.635 328.146 455.495 327.966C455.495 327.966 455.449 327.902 455.495 327.902C457.485 327.87 459.465 328.19 461.336 328.847C458.797 325.279 455.953 321.904 453.135 318.561C452.996 318.413 453.095 318.329 453.234 318.49L461.926 348.839Z" fill="white"/>
<path d="M452.399 331.765C453.401 331.696 454.408 331.732 455.402 331.875C455.515 331.875 455.495 332.087 455.402 332.087C454.428 332.035 453.453 331.894 452.425 331.875C452.418 331.878 452.41 331.879 452.402 331.879C452.394 331.878 452.386 331.876 452.379 331.872C452.372 331.869 452.366 331.863 452.362 331.857C452.357 331.851 452.354 331.844 452.353 331.836C452.351 331.828 452.35 331.82 452.352 331.813C452.353 331.805 452.356 331.798 452.36 331.791C452.364 331.784 452.37 331.779 452.377 331.774C452.383 331.77 452.391 331.767 452.399 331.765Z" fill="white"/>
<path d="M461.814 351.462C463.398 351.617 464.943 352.035 466.382 352.696V352.767C464.877 352.304 463.338 352.047 461.814 351.694C461.782 351.692 461.753 351.679 461.731 351.658C461.709 351.637 461.696 351.608 461.694 351.578C461.694 351.547 461.707 351.518 461.729 351.496C461.752 351.474 461.782 351.462 461.814 351.462Z" fill="white"/>
<path d="M465.553 345.156C466.212 345.202 466.865 345.309 467.502 345.477C467.568 345.477 467.502 345.587 467.502 345.587C466.846 345.57 466.193 345.493 465.553 345.355C465.527 345.346 465.505 345.328 465.493 345.304C465.48 345.28 465.478 345.252 465.487 345.227C465.489 345.21 465.496 345.194 465.508 345.181C465.52 345.168 465.536 345.16 465.553 345.156Z" fill="white"/>
<path d="M512.427 328.088C507.716 330.217 503.268 332.854 499.167 335.95C494.937 339.249 491.405 343.309 488.765 347.907C483.197 357.486 479.284 367.883 477.182 378.687C476.012 384.672 475.567 390.769 475.856 396.854C475.864 396.894 475.886 396.93 475.918 396.955C475.95 396.981 475.99 396.995 476.032 396.995C476.073 396.995 476.113 396.981 476.145 396.955C476.178 396.93 476.199 396.894 476.207 396.854C476.397 386.231 478.304 375.702 481.856 365.65C485.35 355.802 489.958 345.214 498.047 338.072C502.442 334.215 507.581 331.405 512.633 328.493C512.66 328.48 512.685 328.462 512.705 328.44C512.725 328.417 512.74 328.391 512.75 328.363C512.76 328.335 512.764 328.306 512.762 328.276C512.76 328.246 512.752 328.218 512.739 328.191C512.725 328.164 512.706 328.141 512.683 328.121C512.661 328.102 512.634 328.087 512.605 328.077C512.576 328.067 512.545 328.064 512.515 328.065C512.484 328.067 512.455 328.075 512.427 328.088Z" fill="#F9CF00"/>
<path d="M479.947 371.635C483.004 368.281 486.433 365.263 490.17 362.635C496.005 358.63 500.778 355.885 501.998 352.799C503.218 349.714 497.98 346.435 497.98 346.435C497.98 346.435 504.663 348.775 507.037 346.287C509.41 343.799 513.163 327.67 513.163 327.67C513.163 327.67 499.107 334.285 491.145 345.484C483.182 356.682 479.947 371.635 479.947 371.635Z" fill="#F9CF00"/>
<path d="M480.351 368.357C486.186 354.259 494.539 341.164 507.017 331.784C503.771 334.336 500.778 337.177 498.08 340.27C500.783 339.833 503.558 340.097 506.122 341.035C506.182 341.035 506.122 341.132 506.122 341.119C503.429 340.452 500.629 340.294 497.874 340.656H497.788C497.357 341.138 496.939 341.601 496.522 342.134C497.945 342.049 499.373 342.079 500.791 342.224V342.282C499.299 342.172 497.799 342.213 496.316 342.404C494.14 345.076 492.124 347.867 490.276 350.762C491.23 350.529 492.224 350.492 493.193 350.652C493.205 350.656 493.215 350.664 493.222 350.673C493.23 350.683 493.234 350.695 493.234 350.707C493.234 350.719 493.23 350.731 493.222 350.74C493.215 350.75 493.205 350.758 493.193 350.762C492.141 350.76 491.09 350.859 490.057 351.057C489.706 351.591 489.394 352.131 489.023 352.671C491.991 352.176 495.02 352.137 498 352.555M498 352.632C494.935 352.383 491.849 352.515 488.818 353.024C488.499 353.545 488.208 354.085 487.896 354.599C489.671 354.361 491.471 354.361 493.246 354.599C493.255 354.611 493.26 354.624 493.26 354.638C493.26 354.652 493.255 354.665 493.246 354.677C493.249 354.687 493.249 354.698 493.246 354.709C491.409 354.517 489.552 354.573 487.73 354.876C486.404 357.145 485.131 359.459 483.925 361.787C484.683 361.574 485.482 361.537 486.258 361.677V361.742C485.412 361.768 484.573 361.896 483.759 362.121C482.676 364.229 481.646 366.347 480.669 368.472C480.57 368.665 480.232 368.569 480.351 368.382L498 352.632Z" fill="white"/>
<path d="M490.475 356.097C491.899 355.842 493.36 355.857 494.778 356.142ZM494.778 356.206C493.356 356.116 491.93 356.116 490.508 356.206C490.489 356.199 490.474 356.185 490.465 356.167C490.456 356.149 490.455 356.129 490.462 356.11L494.778 356.206Z" fill="white"/>
<path d="M501.388 338.496C502.028 338.381 502.681 338.347 503.331 338.393C503.339 338.396 503.347 338.4 503.353 338.406C503.36 338.412 503.365 338.419 503.369 338.427C503.372 338.434 503.375 338.443 503.375 338.451C503.375 338.46 503.374 338.469 503.37 338.477C503.368 338.486 503.363 338.494 503.356 338.501C503.349 338.507 503.34 338.512 503.331 338.515C502.668 338.515 502.044 338.612 501.388 338.657C501.366 338.649 501.347 338.634 501.336 338.613C501.325 338.593 501.322 338.569 501.328 338.547C501.344 338.525 501.364 338.508 501.388 338.496Z" fill="white"/>
<path d="M460.68 427.236H493.909L489.169 388.947L487.956 379.131H466.634L465.42 388.947L460.68 427.236Z" fill="#BCBEC0"/>
<path opacity="0.3" d="M465.42 388.947H489.169L487.956 379.131H466.634L465.42 388.947Z" fill="#231F20"/>
<path d="M491.012 375.73H463.584V384.049H491.012V375.73Z" fill="white"/>
</svg>
