<svg width="66" height="35" viewBox="0 0 66 35" fill="none" xmlns="http://www.w3.org/2000/svg">
<path fill-rule="evenodd" clip-rule="evenodd" d="M31.4183 3C28.5815 3 26.4183 5.16277 26.4183 7.66667C26.4183 10.1706 28.5815 12.3333 31.4183 12.3333C34.2551 12.3333 36.4183 10.1706 36.4183 7.66667C36.4183 5.16277 34.2551 3 31.4183 3ZM23.4183 7.66667C23.4183 3.35906 27.0754 0 31.4183 0C35.7612 0 39.4183 3.35906 39.4183 7.66667C39.4183 11.9743 35.7612 15.3333 31.4183 15.3333C27.0754 15.3333 23.4183 11.9743 23.4183 7.66667ZM49.4183 13.6667C49.4183 11.1628 51.5815 9 54.4183 9C57.2551 9 59.4183 11.1628 59.4183 13.6667C59.4183 16.1706 57.2551 18.3333 54.4183 18.3333C51.5815 18.3333 49.4183 16.1706 49.4183 13.6667ZM54.4183 6C50.0754 6 46.4183 9.35906 46.4183 13.6667C46.4183 17.9743 50.0754 21.3333 54.4183 21.3333C58.7612 21.3333 62.4183 17.9743 62.4183 13.6667C62.4183 9.35906 58.7612 6 54.4183 6ZM54.4183 24C51.8576 24 49.3575 24.801 47.3058 26.2945C45.2525 27.7893 43.7571 29.9 43.0758 32.3123C42.7756 33.3753 43.3939 34.4804 44.4569 34.7806C45.5199 35.0809 46.625 34.4625 46.9252 33.3995C47.3549 31.8781 48.3077 30.5128 49.66 29.5284C51.0138 28.5428 52.6863 28 54.4183 28C56.1502 28 57.8228 28.5428 59.1766 29.5284C60.5289 30.5128 61.4817 31.8781 61.9114 33.3995C62.2116 34.4625 63.3167 35.0809 64.3797 34.7806C65.4427 34.4804 66.061 33.3753 65.7608 32.3123C65.0795 29.9 63.5841 27.7893 61.5308 26.2946C59.4791 24.801 56.979 24 54.4183 24ZM31.4183 18C28.8576 18 26.3575 18.801 24.3058 20.2945C22.2525 21.7893 20.7571 23.9 20.0758 26.3123C19.9251 26.8459 20.0059 27.3902 20.2581 27.8378C19.74 27.2713 19.1617 26.7539 18.5308 26.2946C16.4791 24.801 13.9789 24 11.4183 24C8.85763 24 6.35747 24.801 4.30578 26.2945C2.25249 27.7893 0.757129 29.9 0.0758047 32.3123C-0.224418 33.3753 0.393924 34.4804 1.45691 34.7806C2.5199 35.0809 3.625 34.4625 3.92522 33.3995C4.35491 31.8781 5.30768 30.5128 6.65995 29.5284C8.01383 28.5428 9.68633 28 11.4183 28C13.1502 28 14.8228 28.5428 16.1766 29.5284C17.5289 30.5128 18.4817 31.8781 18.9114 33.3995C19.2116 34.4625 20.3167 35.0809 21.3797 34.7806C22.4427 34.4804 23.061 33.3753 22.7608 32.3123C22.3592 30.8904 21.6748 29.5733 20.76 28.4254C20.9607 28.5841 21.1953 28.7067 21.4569 28.7806C22.5199 29.0809 23.625 28.4625 23.9252 27.3995C24.3549 25.8781 25.3077 24.5128 26.66 23.5284C28.0138 22.5428 29.6863 22 31.4183 22C33.1502 22 34.8228 22.5428 36.1766 23.5284C37.5289 24.5128 38.4817 25.8781 38.9114 27.3995C39.2116 28.4625 40.3167 29.0809 41.3797 28.7806C42.4427 28.4804 43.061 27.3753 42.7608 26.3123C42.0794 23.9 40.5841 21.7893 38.5308 20.2946C36.4791 18.801 33.979 18 31.4183 18ZM11.4183 9C8.58148 9 6.41829 11.1628 6.41829 13.6667C6.41829 16.1706 8.58148 18.3333 11.4183 18.3333C14.2551 18.3333 16.4183 16.1706 16.4183 13.6667C16.4183 11.1628 14.2551 9 11.4183 9ZM3.41829 13.6667C3.41829 9.35906 7.0754 6 11.4183 6C15.7612 6 19.4183 9.35906 19.4183 13.6667C19.4183 17.9743 15.7612 21.3333 11.4183 21.3333C7.0754 21.3333 3.41829 17.9743 3.41829 13.6667Z" fill="#F9CF00"/>
</svg>
