<svg width="38" height="34" viewBox="0 0 38 34" fill="none" xmlns="http://www.w3.org/2000/svg">
<path fill-rule="evenodd" clip-rule="evenodd" d="M18.0559 0.242817C18.6502 -0.0809392 19.3498 -0.0809392 19.9441 0.242817L36.833 9.44282C37.5482 9.83242 38 10.6288 38 11.5C38 12.3712 37.5482 13.1676 36.833 13.5572L19.9441 22.7572C19.3498 23.0809 18.6502 23.0809 18.0559 22.7572L1.16699 13.5572C0.451783 13.1676 0 12.3712 0 11.5C0 10.6288 0.451783 9.83242 1.16699 9.44282L18.0559 0.242817ZM6.8317 11.5L19 18.1285L31.1683 11.5L19 4.87148L6.8317 11.5Z" fill="#F9CF00"/>
<path fill-rule="evenodd" clip-rule="evenodd" d="M35.5 9C36.8807 9 38 10.0447 38 11.3333V20.6667C38 21.9553 36.8807 23 35.5 23C34.1193 23 33 21.9553 33 20.6667V11.3333C33 10.0447 34.1193 9 35.5 9Z" fill="#F9CF00"/>
<path fill-rule="evenodd" clip-rule="evenodd" d="M8.08333 14C9.23393 14 10.1667 14.9949 10.1667 16.2222V26.886C10.2698 27.0648 10.5004 27.3942 10.9725 27.7635C11.9308 28.5132 14.0577 29.5556 18.5 29.5556C22.9423 29.5556 25.0692 28.5132 26.0275 27.7635C26.4996 27.3942 26.7302 27.0648 26.8333 26.886V16.2222C26.8333 14.9949 27.7661 14 28.9167 14C30.0673 14 31 14.9949 31 16.2222V27.3333C31 27.499 30.9826 27.6642 30.9482 27.8258L28.9167 27.3333C30.9482 27.8258 30.9477 27.8281 30.9472 27.8305L30.9462 27.8352L30.944 27.845L30.9393 27.866L30.928 27.9132C30.9197 27.9469 30.9096 27.9852 30.8975 28.0277C30.8734 28.1127 30.8412 28.2147 30.7987 28.331C30.7136 28.5639 30.5874 28.8539 30.4024 29.1796C30.0291 29.8366 29.4308 30.6128 28.4915 31.3476C26.6089 32.8202 23.5274 34 18.5 34C13.4726 34 10.3911 32.8202 8.50852 31.3476C7.56916 30.6128 6.97093 29.8366 6.5976 29.1796C6.41258 28.8539 6.28638 28.5639 6.20132 28.331C6.15882 28.2147 6.12663 28.1127 6.10248 28.0277C6.0904 27.9852 6.08033 27.9469 6.07198 27.9132L6.06071 27.866L6.05598 27.845L6.05382 27.8352L6.0528 27.8305C6.0523 27.8281 6.05181 27.8258 8.08333 27.3333L6.05181 27.8258C6.01738 27.6642 6 27.499 6 27.3333V16.2222C6 14.9949 6.93274 14 8.08333 14Z" fill="#F9CF00"/>
</svg>
