<svg width="264" height="13" viewBox="0 0 264 13" fill="none" xmlns="http://www.w3.org/2000/svg">
<path fill-rule="evenodd" clip-rule="evenodd" d="M46.9345 4.50678C44.0523 5.04618 41.3473 5.82711 38.9079 6.92202C38.6422 7.04278 38.5616 7.21181 38.5375 7.28426C38.4972 7.41308 38.5134 7.5339 38.5778 7.64661C38.618 7.71907 38.6825 7.80764 38.8193 7.864C38.9159 7.90425 39.1655 7.93642 39.4956 7.92837C40.0591 7.92032 40.9287 7.85594 41.3473 7.85594C42.7803 7.87204 44.2134 7.86392 45.6464 7.88807C50.2112 7.96858 51.0082 8.03299 56.8772 7.98468C63.7284 7.92832 70.5958 7.83172 77.4551 7.6868C55.6535 8.89442 33.8842 10.3033 12.2276 11.6156C11.986 11.6317 11.8009 11.8411 11.817 12.0826C11.825 12.3322 12.0423 12.5174 12.2839 12.5013C62.8187 9.44196 113.909 5.83515 164.83 5.60168C167.342 5.65803 169.846 5.71436 172.342 5.77071C187.421 6.12495 202.508 6.55167 217.571 7.21184C222.474 7.42921 227.377 7.67071 232.288 7.89613C233.737 7.96054 235.194 8.02494 236.651 8.08934C237.827 8.13765 240.854 8.3148 241.281 8.32285C241.667 8.3309 241.764 7.98476 241.772 7.96866C241.796 7.85595 241.78 7.72708 241.683 7.60632C241.659 7.57411 241.595 7.48559 241.45 7.44534C241.425 7.44534 241.313 7.4292 241.079 7.40505C228.971 6.4148 216.83 5.73048 204.666 5.29574C206.3 5.31184 207.934 5.31993 209.569 5.33604C222.168 5.43264 234.8 5.77883 247.391 5.33604C250.257 5.23943 253.131 5.12667 255.989 4.98981C257.914 4.90125 262.865 5.01398 263.565 4.80465C263.887 4.7161 263.96 4.49065 263.968 4.37794C263.976 4.24913 263.952 4.10421 263.807 3.9754C263.742 3.91099 263.541 3.80638 263.163 3.72588C250.805 1.04496 236.345 1.80168 223.762 1.05296C189.586 -0.999997 155.532 0.368698 121.364 1.61657C91.874 2.69538 62.3839 2.75172 32.91 4.21696C22.1219 4.74832 10.9958 4.13649 0.360698 6.16529C0.119174 6.2136 -0.0338423 6.43893 0.00641165 6.68046C0.0547164 6.92198 0.288209 7.08305 0.529733 7.03474C11.1165 5.01399 22.2025 5.63388 32.9503 5.10253C37.6117 4.86906 42.2731 4.67585 46.9345 4.50678ZM138.11 5.10253C120.052 4.82075 101.994 4.6758 83.9199 4.76436C71.5217 4.82072 53.4557 2.46192 41.138 6.97037C41.2265 6.97037 41.2989 6.97037 41.3633 6.97037C42.7964 6.98647 44.2295 6.9703 45.6625 7.00251C50.2193 7.08301 51.0162 7.14742 56.8691 7.09911C71.8356 6.9703 86.8423 6.64832 101.801 6.14917C113.917 5.74663 126.017 5.38431 138.11 5.10253ZM260.264 4.06395C248.583 2.01904 235.339 2.63099 223.706 1.93862C189.562 -0.11433 155.532 1.25427 121.396 2.50214C106.14 3.06569 90.8919 3.34746 75.6517 3.69364C78.5741 3.80635 81.3678 3.88684 83.9199 3.87879C109.755 3.74998 135.582 4.09622 161.417 4.64368C177.462 4.40215 193.507 4.3136 209.577 4.44241C222.168 4.54707 234.776 4.88521 247.367 4.45047C250.225 4.35386 253.091 4.2411 255.949 4.10424C256.923 4.06399 258.686 4.072 260.264 4.06395Z" fill="white"/>
</svg>
